<?xml version="1.0" encoding="utf-8" standalone="no"?>
<!DOCTYPE svg PUBLIC "-//W3C//DTD SVG 1.1//EN"
  "http://www.w3.org/Graphics/SVG/1.1/DTD/svg11.dtd">
<svg xmlns:xlink="http://www.w3.org/1999/xlink" width="1000.54125pt" height="568.151393pt" viewBox="0 0 1000.54125 568.151393" xmlns="http://www.w3.org/2000/svg" version="1.1">
 <metadata>
  <rdf:RDF xmlns:dc="http://purl.org/dc/elements/1.1/" xmlns:cc="http://creativecommons.org/ns#" xmlns:rdf="http://www.w3.org/1999/02/22-rdf-syntax-ns#">
   <cc:Work>
    <dc:type rdf:resource="http://purl.org/dc/dcmitype/StillImage"/>
    <dc:date>2025-07-20T17:56:22.703709</dc:date>
    <dc:format>image/svg+xml</dc:format>
    <dc:creator>
     <cc:Agent>
      <dc:title>Matplotlib v3.10.3, https://matplotlib.org/</dc:title>
     </cc:Agent>
    </dc:creator>
   </cc:Work>
  </rdf:RDF>
 </metadata>
 <defs>
  <style type="text/css">*{stroke-linejoin: round; stroke-linecap: butt}</style>
 </defs>
 <g id="figure_1">
  <g id="patch_1">
   <path d="M 0 568.151393 
L 1000.54125 568.151393 
L 1000.54125 0 
L 0 0 
z
" style="fill: #ffffff"/>
  </g>
  <g id="axes_1">
   <g id="patch_2">
    <path d="M 48.90125 501.949265 
L 993.34125 501.949265 
L 993.34125 25.3575 
L 48.90125 25.3575 
z
" style="fill: #ffffff"/>
   </g>
   <g id="FillBetweenPolyCollection_1">
    <defs>
     <path id="m3e09b6f98a" d="M 91.830341 -231.675054 
L 91.830341 -162.079758 
L 94.811528 -156.910425 
L 97.792715 -179.063508 
L 100.773902 -211.363371 
L 103.755088 -201.708885 
L 106.736275 -187.123429 
L 109.717462 -219.553853 
L 112.698649 -250.465455 
L 115.679836 -186.285486 
L 118.661023 -245.332309 
L 121.64221 -204.47845 
L 124.623396 -154.523264 
L 127.604583 -193.539683 
L 130.58577 -163.987145 
L 133.566957 -168.892584 
L 136.548144 -191.932018 
L 139.529331 -182.982775 
L 142.510518 -276.991834 
L 145.491705 -166.409743 
L 148.472891 -191.5342 
L 151.454078 -273.525111 
L 154.435265 -212.550856 
L 157.416452 -273.44385 
L 160.397639 -210.309339 
L 163.378826 -244.578424 
L 166.360013 -288.682222 
L 169.341199 -197.094681 
L 172.322386 -279.444313 
L 175.303573 -208.840945 
L 178.28476 -244.835827 
L 181.265947 -218.247872 
L 184.247134 -318.808107 
L 187.228321 -268.844132 
L 190.209508 -179.871893 
L 193.190694 -356.183492 
L 196.171881 -168.763454 
L 199.153068 -214.947895 
L 202.134255 -221.179328 
L 205.115442 -231.774058 
L 208.096629 -282.617079 
L 211.077816 -303.095336 
L 214.059003 -258.929427 
L 217.040189 -216.168741 
L 220.021376 -244.490152 
L 223.002563 -173.265174 
L 225.98375 -261.035681 
L 228.964937 -229.485479 
L 231.946124 -260.618625 
L 234.927311 -251.791212 
L 237.908497 -199.535881 
L 240.889684 -240.662268 
L 243.870871 -204.023548 
L 246.852058 -230.834413 
L 249.833245 -277.547768 
L 252.814432 -264.595128 
L 255.795619 -260.894409 
L 258.776806 -219.347226 
L 261.757992 -176.577233 
L 264.739179 -200.278905 
L 267.720366 -247.584327 
L 270.701553 -210.284501 
L 273.68274 -238.480311 
L 276.663927 -244.809178 
L 279.645114 -217.234433 
L 282.626301 -252.95163 
L 285.607487 -276.324808 
L 288.588674 -185.705987 
L 291.569861 -259.337332 
L 294.551048 -223.720661 
L 297.532235 -206.538868 
L 300.513422 -200.107775 
L 303.494609 -290.575055 
L 306.475795 -266.914208 
L 309.456982 -264.662796 
L 312.438169 -125.917036 
L 315.419356 -262.017044 
L 318.400543 -193.129952 
L 321.38173 -199.499673 
L 324.362917 -204.344127 
L 327.344104 -128.351889 
L 330.32529 -160.426245 
L 333.306477 -208.894036 
L 336.287664 -265.827867 
L 339.268851 -224.592645 
L 342.250038 -194.255874 
L 345.231225 -247.298864 
L 348.212412 -192.285993 
L 351.193598 -228.495158 
L 354.174785 -170.1857 
L 357.155972 -280.306965 
L 360.137159 -154.764003 
L 363.118346 -184.733761 
L 366.099533 -130.344921 
L 369.08072 -87.86539 
L 372.061907 -142.519425 
L 375.043093 -93.451068 
L 378.02428 -190.976889 
L 381.005467 -195.967139 
L 383.986654 -241.606901 
L 386.967841 -198.677776 
L 389.949028 -99.11619 
L 392.930215 -124.125713 
L 395.911402 -177.360318 
L 398.892588 -94.553293 
L 401.873775 -232.822411 
L 404.854962 -230.36622 
L 407.836149 -225.869994 
L 410.817336 -117.701642 
L 413.798523 -232.664876 
L 416.77971 -167.764169 
L 419.760896 -149.244383 
L 422.742083 -117.595993 
L 425.72327 -157.978153 
L 428.704457 -270.23116 
L 431.685644 -174.519466 
L 434.666831 -176.202645 
L 437.648018 -204.175526 
L 440.629205 -102.385616 
L 443.610391 -223.439318 
L 446.591578 -220.308412 
L 449.572765 -238.003543 
L 452.553952 -184.124095 
L 455.535139 -205.401929 
L 458.516326 -88.741147 
L 461.497513 -266.884585 
L 464.478699 -294.487052 
L 467.459886 -139.773552 
L 470.441073 -241.556274 
L 473.42226 -216.839462 
L 476.403447 -235.812094 
L 479.384634 -159.439412 
L 482.365821 -294.72593 
L 485.347008 -244.642676 
L 488.328194 -231.891576 
L 491.309381 -227.572541 
L 494.290568 -310.450737 
L 497.271755 -253.304147 
L 500.252942 -188.927181 
L 503.234129 -294.199044 
L 506.215316 -235.138674 
L 509.196503 -190.292441 
L 512.177689 -254.538044 
L 515.158876 -118.68053 
L 518.140063 -252.722158 
L 521.12125 -294.670297 
L 524.102437 -345.853409 
L 527.083624 -222.470367 
L 530.064811 -279.110881 
L 533.045997 -241.581217 
L 536.027184 -224.794232 
L 539.008371 -286.132856 
L 541.989558 -308.879447 
L 544.970745 -258.876021 
L 547.951932 -222.035761 
L 550.933119 -299.197224 
L 553.914306 -220.785008 
L 556.895492 -391.146182 
L 559.876679 -331.462825 
L 562.857866 -225.168864 
L 565.839053 -311.995599 
L 568.82024 -234.441151 
L 571.801427 -338.63093 
L 574.782614 -391.94119 
L 577.763801 -250.594696 
L 580.744987 -373.261283 
L 583.726174 -317.634618 
L 586.707361 -325.526005 
L 589.688548 -392.425509 
L 592.669735 -281.318836 
L 595.650922 -281.879544 
L 598.632109 -255.301103 
L 601.613295 -374.534892 
L 604.594482 -333.54031 
L 607.575669 -323.894438 
L 610.556856 -356.059964 
L 613.538043 -365.924491 
L 616.51923 -332.949582 
L 619.500417 -417.748187 
L 622.481604 -360.150139 
L 625.46279 -424.953627 
L 628.443977 -346.314932 
L 631.425164 -302.808337 
L 634.406351 -221.79322 
L 637.387538 -308.316787 
L 640.368725 -386.95199 
L 643.349912 -431.937499 
L 646.331098 -354.276665 
L 649.312285 -363.869488 
L 652.293472 -325.307817 
L 655.274659 -400.628177 
L 658.255846 -368.714127 
L 661.237033 -371.226728 
L 664.21822 -316.712527 
L 667.199407 -238.182612 
L 670.180593 -355.644553 
L 673.16178 -327.731714 
L 676.142967 -255.441112 
L 679.124154 -320.945498 
L 682.105341 -300.395916 
L 685.086528 -355.00715 
L 688.067715 -380.063525 
L 691.048902 -353.850579 
L 694.030088 -425.688849 
L 697.011275 -372.106227 
L 699.992462 -246.183779 
L 702.973649 -347.308172 
L 705.954836 -363.711166 
L 708.936023 -304.641915 
L 711.91721 -333.552531 
L 714.898396 -430.58754 
L 717.879583 -288.494291 
L 720.86077 -391.256797 
L 723.841957 -418.201198 
L 726.823144 -284.908527 
L 729.804331 -318.195344 
L 732.785518 -311.955958 
L 735.766705 -259.014118 
L 738.747891 -273.024723 
L 741.729078 -251.900996 
L 744.710265 -304.020287 
L 747.691452 -352.909376 
L 750.672639 -235.745847 
L 753.653826 -316.856685 
L 756.635013 -222.780678 
L 759.616199 -238.92486 
L 762.597386 -306.961153 
L 765.578573 -315.468783 
L 768.55976 -262.094573 
L 771.540947 -220.16565 
L 774.522134 -309.328142 
L 777.503321 -279.08842 
L 780.484508 -224.830908 
L 783.465694 -297.332197 
L 786.446881 -226.321517 
L 789.428068 -373.472708 
L 792.409255 -267.830926 
L 795.390442 -130.256646 
L 798.371629 -217.688583 
L 801.352816 -246.079149 
L 804.334003 -309.075817 
L 807.315189 -205.057342 
L 810.296376 -285.538194 
L 813.277563 -224.50833 
L 816.25875 -295.34662 
L 819.239937 -176.822171 
L 822.221124 -229.00877 
L 825.202311 -249.062969 
L 828.183497 -209.504525 
L 831.164684 -316.617424 
L 834.145871 -316.856592 
L 837.127058 -197.957513 
L 840.108245 -330.509193 
L 843.089432 -304.445183 
L 846.070619 -324.948011 
L 849.051806 -264.193792 
L 852.032992 -161.522052 
L 855.014179 -288.312197 
L 857.995366 -266.094585 
L 860.976553 -281.784981 
L 863.95774 -316.292745 
L 866.938927 -219.296085 
L 869.920114 -278.155394 
L 872.901301 -153.065092 
L 875.882487 -285.166562 
L 878.863674 -282.593807 
L 881.844861 -250.737621 
L 884.826048 -332.52489 
L 887.807235 -218.408212 
L 890.788422 -259.46665 
L 893.769609 -313.074695 
L 896.750795 -334.607404 
L 899.731982 -256.263697 
L 902.713169 -420.147947 
L 905.694356 -336.424328 
L 908.675543 -259.01044 
L 911.65673 -370.871809 
L 914.637917 -305.663834 
L 917.619104 -219.869403 
L 920.60029 -285.1671 
L 923.581477 -240.090152 
L 926.562664 -316.886564 
L 929.543851 -353.860735 
L 932.525038 -451.535334 
L 935.506225 -301.074424 
L 938.487412 -409.593026 
L 941.468598 -299.412411 
L 944.449785 -259.181675 
L 947.430972 -378.763318 
L 950.412159 -390.127685 
L 950.412159 -459.722981 
L 950.412159 -459.722981 
L 947.430972 -448.358614 
L 944.449785 -328.776971 
L 941.468598 -369.007707 
L 938.487412 -479.188322 
L 935.506225 -370.66972 
L 932.525038 -521.130631 
L 929.543851 -423.456031 
L 926.562664 -386.48186 
L 923.581477 -309.685448 
L 920.60029 -354.762396 
L 917.619104 -289.464699 
L 914.637917 -375.25913 
L 911.65673 -440.467105 
L 908.675543 -328.605736 
L 905.694356 -406.019624 
L 902.713169 -489.743244 
L 899.731982 -325.858993 
L 896.750795 -404.2027 
L 893.769609 -382.669991 
L 890.788422 -329.061946 
L 887.807235 -288.003508 
L 884.826048 -402.120186 
L 881.844861 -320.332917 
L 878.863674 -352.189103 
L 875.882487 -354.761858 
L 872.901301 -222.660388 
L 869.920114 -347.75069 
L 866.938927 -288.891381 
L 863.95774 -385.888041 
L 860.976553 -351.380277 
L 857.995366 -335.689881 
L 855.014179 -357.907493 
L 852.032992 -231.117348 
L 849.051806 -333.789089 
L 846.070619 -394.543307 
L 843.089432 -374.040479 
L 840.108245 -400.104489 
L 837.127058 -267.552809 
L 834.145871 -386.451888 
L 831.164684 -386.21272 
L 828.183497 -279.099821 
L 825.202311 -318.658265 
L 822.221124 -298.604066 
L 819.239937 -246.417467 
L 816.25875 -364.941916 
L 813.277563 -294.103626 
L 810.296376 -355.13349 
L 807.315189 -274.652638 
L 804.334003 -378.671113 
L 801.352816 -315.674445 
L 798.371629 -287.283879 
L 795.390442 -199.851942 
L 792.409255 -337.426222 
L 789.428068 -443.068004 
L 786.446881 -295.916813 
L 783.465694 -366.927493 
L 780.484508 -294.426204 
L 777.503321 -348.683716 
L 774.522134 -378.923438 
L 771.540947 -289.760946 
L 768.55976 -331.689869 
L 765.578573 -385.064079 
L 762.597386 -376.556449 
L 759.616199 -308.520156 
L 756.635013 -292.375974 
L 753.653826 -386.451981 
L 750.672639 -305.341143 
L 747.691452 -422.504672 
L 744.710265 -373.615583 
L 741.729078 -321.496292 
L 738.747891 -342.620019 
L 735.766705 -328.609414 
L 732.785518 -381.551254 
L 729.804331 -387.79064 
L 726.823144 -354.503823 
L 723.841957 -487.796494 
L 720.86077 -460.852093 
L 717.879583 -358.089587 
L 714.898396 -500.182836 
L 711.91721 -403.147827 
L 708.936023 -374.237211 
L 705.954836 -433.306462 
L 702.973649 -416.903468 
L 699.992462 -315.779075 
L 697.011275 -441.701523 
L 694.030088 -495.284145 
L 691.048902 -423.445875 
L 688.067715 -449.658821 
L 685.086528 -424.602446 
L 682.105341 -369.991212 
L 679.124154 -390.540794 
L 676.142967 -325.036408 
L 673.16178 -397.32701 
L 670.180593 -425.239849 
L 667.199407 -307.777908 
L 664.21822 -386.307823 
L 661.237033 -440.822024 
L 658.255846 -438.309423 
L 655.274659 -470.223473 
L 652.293472 -394.903113 
L 649.312285 -433.464784 
L 646.331098 -423.871961 
L 643.349912 -501.532795 
L 640.368725 -456.547286 
L 637.387538 -377.912083 
L 634.406351 -291.388516 
L 631.425164 -372.403633 
L 628.443977 -415.910229 
L 625.46279 -494.548923 
L 622.481604 -429.745435 
L 619.500417 -487.343483 
L 616.51923 -402.544878 
L 613.538043 -435.519787 
L 610.556856 -425.65526 
L 607.575669 -393.489734 
L 604.594482 -403.135606 
L 601.613295 -444.130188 
L 598.632109 -324.896399 
L 595.650922 -351.47484 
L 592.669735 -350.914132 
L 589.688548 -462.020805 
L 586.707361 -395.121301 
L 583.726174 -387.229914 
L 580.744987 -442.856579 
L 577.763801 -320.189992 
L 574.782614 -461.536486 
L 571.801427 -408.226226 
L 568.82024 -304.036447 
L 565.839053 -381.590895 
L 562.857866 -294.76416 
L 559.876679 -401.058121 
L 556.895492 -460.741478 
L 553.914306 -290.380304 
L 550.933119 -368.792521 
L 547.951932 -291.631057 
L 544.970745 -328.471317 
L 541.989558 -378.474743 
L 539.008371 -355.728152 
L 536.027184 -294.389528 
L 533.045997 -311.176513 
L 530.064811 -348.706177 
L 527.083624 -292.065663 
L 524.102437 -415.448705 
L 521.12125 -364.265593 
L 518.140063 -322.317454 
L 515.158876 -188.275826 
L 512.177689 -324.13334 
L 509.196503 -259.887738 
L 506.215316 -304.73397 
L 503.234129 -363.79434 
L 500.252942 -258.522477 
L 497.271755 -322.899443 
L 494.290568 -380.046033 
L 491.309381 -297.167837 
L 488.328194 -301.486872 
L 485.347008 -314.237973 
L 482.365821 -364.321226 
L 479.384634 -229.034708 
L 476.403447 -305.40739 
L 473.42226 -286.434758 
L 470.441073 -311.15157 
L 467.459886 -209.368848 
L 464.478699 -364.082348 
L 461.497513 -336.479881 
L 458.516326 -158.336443 
L 455.535139 -274.997225 
L 452.553952 -253.719391 
L 449.572765 -307.598839 
L 446.591578 -289.903708 
L 443.610391 -293.034615 
L 440.629205 -171.980912 
L 437.648018 -273.770822 
L 434.666831 -245.797941 
L 431.685644 -244.114762 
L 428.704457 -339.826456 
L 425.72327 -227.573449 
L 422.742083 -187.191289 
L 419.760896 -218.839679 
L 416.77971 -237.359465 
L 413.798523 -302.260172 
L 410.817336 -187.296938 
L 407.836149 -295.46529 
L 404.854962 -299.961516 
L 401.873775 -302.417707 
L 398.892588 -164.148589 
L 395.911402 -246.955614 
L 392.930215 -193.721009 
L 389.949028 -168.711486 
L 386.967841 -268.273072 
L 383.986654 -311.202197 
L 381.005467 -265.562435 
L 378.02428 -260.572185 
L 375.043093 -163.046364 
L 372.061907 -212.114721 
L 369.08072 -157.460686 
L 366.099533 -199.940217 
L 363.118346 -254.329057 
L 360.137159 -224.359299 
L 357.155972 -349.902261 
L 354.174785 -239.780997 
L 351.193598 -298.090454 
L 348.212412 -261.881289 
L 345.231225 -316.89416 
L 342.250038 -263.85117 
L 339.268851 -294.187941 
L 336.287664 -335.423163 
L 333.306477 -278.489332 
L 330.32529 -230.021541 
L 327.344104 -197.947185 
L 324.362917 -273.939423 
L 321.38173 -269.094969 
L 318.400543 -262.725248 
L 315.419356 -331.61234 
L 312.438169 -195.512332 
L 309.456982 -334.258092 
L 306.475795 -336.509504 
L 303.494609 -360.170351 
L 300.513422 -269.703071 
L 297.532235 -276.134164 
L 294.551048 -293.315957 
L 291.569861 -328.932628 
L 288.588674 -255.301283 
L 285.607487 -345.920104 
L 282.626301 -322.546926 
L 279.645114 -286.82973 
L 276.663927 -314.404474 
L 273.68274 -308.075607 
L 270.701553 -279.879797 
L 267.720366 -317.179623 
L 264.739179 -269.874201 
L 261.757992 -246.172529 
L 258.776806 -288.942522 
L 255.795619 -330.489705 
L 252.814432 -334.190424 
L 249.833245 -347.143064 
L 246.852058 -300.429709 
L 243.870871 -273.618844 
L 240.889684 -310.257564 
L 237.908497 -269.131177 
L 234.927311 -321.386508 
L 231.946124 -330.213921 
L 228.964937 -299.080775 
L 225.98375 -330.630977 
L 223.002563 -242.86047 
L 220.021376 -314.085448 
L 217.040189 -285.764037 
L 214.059003 -328.524723 
L 211.077816 -372.690632 
L 208.096629 -352.212375 
L 205.115442 -301.369354 
L 202.134255 -290.774624 
L 199.153068 -284.543191 
L 196.171881 -238.35875 
L 193.190694 -425.778788 
L 190.209508 -249.467189 
L 187.228321 -338.439428 
L 184.247134 -388.403403 
L 181.265947 -287.843168 
L 178.28476 -314.431123 
L 175.303573 -278.436241 
L 172.322386 -349.039609 
L 169.341199 -266.689978 
L 166.360013 -358.277518 
L 163.378826 -314.17372 
L 160.397639 -279.904635 
L 157.416452 -343.039146 
L 154.435265 -282.146152 
L 151.454078 -343.120407 
L 148.472891 -261.129496 
L 145.491705 -236.005039 
L 142.510518 -346.58713 
L 139.529331 -252.578071 
L 136.548144 -261.527314 
L 133.566957 -238.48788 
L 130.58577 -233.582441 
L 127.604583 -263.134979 
L 124.623396 -224.11856 
L 121.64221 -274.073746 
L 118.661023 -314.927605 
L 115.679836 -255.880782 
L 112.698649 -320.060751 
L 109.717462 -289.149149 
L 106.736275 -256.718725 
L 103.755088 -271.304181 
L 100.773902 -280.958667 
L 97.792715 -248.658804 
L 94.811528 -226.505721 
L 91.830341 -231.675054 
z
" style="stroke: #ff0000; stroke-opacity: 0.2"/>
    </defs>
    <g clip-path="url(#p131022f813)">
     <use xlink:href="#m3e09b6f98a" x="0" y="568.151393" style="fill: #ff0000; fill-opacity: 0.2; stroke: #ff0000; stroke-opacity: 0.2"/>
    </g>
   </g>
   <g id="matplotlib.axis_1">
    <g id="xtick_1">
     <g id="line2d_1">
      <path d="M 91.830341 501.949265 
L 91.830341 25.3575 
" clip-path="url(#p131022f813)" style="fill: none; stroke: #b0b0b0; stroke-opacity: 0.3; stroke-width: 0.8; stroke-linecap: square"/>
     </g>
     <g id="line2d_2">
      <defs>
       <path id="m2616dcd89a" d="M 0 0 
L 0 3.5 
" style="stroke: #000000; stroke-width: 0.8"/>
      </defs>
      <g>
       <use xlink:href="#m2616dcd89a" x="91.830341" y="501.949265" style="stroke: #000000; stroke-width: 0.8"/>
      </g>
     </g>
     <g id="text_1">
      <!-- 2022-01 -->
      <g transform="translate(79.009059 543.867081) rotate(-45) scale(0.1 -0.1)">
       <defs>
        <path id="DejaVuSans-32" d="M 1228 531 
L 3431 531 
L 3431 0 
L 469 0 
L 469 531 
Q 828 903 1448 1529 
Q 2069 2156 2228 2338 
Q 2531 2678 2651 2914 
Q 2772 3150 2772 3378 
Q 2772 3750 2511 3984 
Q 2250 4219 1831 4219 
Q 1534 4219 1204 4116 
Q 875 4013 500 3803 
L 500 4441 
Q 881 4594 1212 4672 
Q 1544 4750 1819 4750 
Q 2544 4750 2975 4387 
Q 3406 4025 3406 3419 
Q 3406 3131 3298 2873 
Q 3191 2616 2906 2266 
Q 2828 2175 2409 1742 
Q 1991 1309 1228 531 
z
" transform="scale(0.015625)"/>
        <path id="DejaVuSans-30" d="M 2034 4250 
Q 1547 4250 1301 3770 
Q 1056 3291 1056 2328 
Q 1056 1369 1301 889 
Q 1547 409 2034 409 
Q 2525 409 2770 889 
Q 3016 1369 3016 2328 
Q 3016 3291 2770 3770 
Q 2525 4250 2034 4250 
z
M 2034 4750 
Q 2819 4750 3233 4129 
Q 3647 3509 3647 2328 
Q 3647 1150 3233 529 
Q 2819 -91 2034 -91 
Q 1250 -91 836 529 
Q 422 1150 422 2328 
Q 422 3509 836 4129 
Q 1250 4750 2034 4750 
z
" transform="scale(0.015625)"/>
        <path id="DejaVuSans-2d" d="M 313 2009 
L 1997 2009 
L 1997 1497 
L 313 1497 
L 313 2009 
z
" transform="scale(0.015625)"/>
        <path id="DejaVuSans-31" d="M 794 531 
L 1825 531 
L 1825 4091 
L 703 3866 
L 703 4441 
L 1819 4666 
L 2450 4666 
L 2450 531 
L 3481 531 
L 3481 0 
L 794 0 
L 794 531 
z
" transform="scale(0.015625)"/>
       </defs>
       <use xlink:href="#DejaVuSans-32"/>
       <use xlink:href="#DejaVuSans-30" transform="translate(63.623047 0)"/>
       <use xlink:href="#DejaVuSans-32" transform="translate(127.246094 0)"/>
       <use xlink:href="#DejaVuSans-32" transform="translate(190.869141 0)"/>
       <use xlink:href="#DejaVuSans-2d" transform="translate(254.492188 0)"/>
       <use xlink:href="#DejaVuSans-30" transform="translate(290.576172 0)"/>
       <use xlink:href="#DejaVuSans-31" transform="translate(354.199219 0)"/>
      </g>
     </g>
    </g>
    <g id="xtick_2">
     <g id="line2d_3">
      <path d="M 184.247134 501.949265 
L 184.247134 25.3575 
" clip-path="url(#p131022f813)" style="fill: none; stroke: #b0b0b0; stroke-opacity: 0.3; stroke-width: 0.8; stroke-linecap: square"/>
     </g>
     <g id="line2d_4">
      <g>
       <use xlink:href="#m2616dcd89a" x="184.247134" y="501.949265" style="stroke: #000000; stroke-width: 0.8"/>
      </g>
     </g>
     <g id="text_2">
      <!-- 2022-02 -->
      <g transform="translate(171.425852 543.867081) rotate(-45) scale(0.1 -0.1)">
       <use xlink:href="#DejaVuSans-32"/>
       <use xlink:href="#DejaVuSans-30" transform="translate(63.623047 0)"/>
       <use xlink:href="#DejaVuSans-32" transform="translate(127.246094 0)"/>
       <use xlink:href="#DejaVuSans-32" transform="translate(190.869141 0)"/>
       <use xlink:href="#DejaVuSans-2d" transform="translate(254.492188 0)"/>
       <use xlink:href="#DejaVuSans-30" transform="translate(290.576172 0)"/>
       <use xlink:href="#DejaVuSans-32" transform="translate(354.199219 0)"/>
      </g>
     </g>
    </g>
    <g id="xtick_3">
     <g id="line2d_5">
      <path d="M 267.720366 501.949265 
L 267.720366 25.3575 
" clip-path="url(#p131022f813)" style="fill: none; stroke: #b0b0b0; stroke-opacity: 0.3; stroke-width: 0.8; stroke-linecap: square"/>
     </g>
     <g id="line2d_6">
      <g>
       <use xlink:href="#m2616dcd89a" x="267.720366" y="501.949265" style="stroke: #000000; stroke-width: 0.8"/>
      </g>
     </g>
     <g id="text_3">
      <!-- 2022-03 -->
      <g transform="translate(254.899084 543.867081) rotate(-45) scale(0.1 -0.1)">
       <defs>
        <path id="DejaVuSans-33" d="M 2597 2516 
Q 3050 2419 3304 2112 
Q 3559 1806 3559 1356 
Q 3559 666 3084 287 
Q 2609 -91 1734 -91 
Q 1441 -91 1130 -33 
Q 819 25 488 141 
L 488 750 
Q 750 597 1062 519 
Q 1375 441 1716 441 
Q 2309 441 2620 675 
Q 2931 909 2931 1356 
Q 2931 1769 2642 2001 
Q 2353 2234 1838 2234 
L 1294 2234 
L 1294 2753 
L 1863 2753 
Q 2328 2753 2575 2939 
Q 2822 3125 2822 3475 
Q 2822 3834 2567 4026 
Q 2313 4219 1838 4219 
Q 1578 4219 1281 4162 
Q 984 4106 628 3988 
L 628 4550 
Q 988 4650 1302 4700 
Q 1616 4750 1894 4750 
Q 2613 4750 3031 4423 
Q 3450 4097 3450 3541 
Q 3450 3153 3228 2886 
Q 3006 2619 2597 2516 
z
" transform="scale(0.015625)"/>
       </defs>
       <use xlink:href="#DejaVuSans-32"/>
       <use xlink:href="#DejaVuSans-30" transform="translate(63.623047 0)"/>
       <use xlink:href="#DejaVuSans-32" transform="translate(127.246094 0)"/>
       <use xlink:href="#DejaVuSans-32" transform="translate(190.869141 0)"/>
       <use xlink:href="#DejaVuSans-2d" transform="translate(254.492188 0)"/>
       <use xlink:href="#DejaVuSans-30" transform="translate(290.576172 0)"/>
       <use xlink:href="#DejaVuSans-33" transform="translate(354.199219 0)"/>
      </g>
     </g>
    </g>
    <g id="xtick_4">
     <g id="line2d_7">
      <path d="M 360.137159 501.949265 
L 360.137159 25.3575 
" clip-path="url(#p131022f813)" style="fill: none; stroke: #b0b0b0; stroke-opacity: 0.3; stroke-width: 0.8; stroke-linecap: square"/>
     </g>
     <g id="line2d_8">
      <g>
       <use xlink:href="#m2616dcd89a" x="360.137159" y="501.949265" style="stroke: #000000; stroke-width: 0.8"/>
      </g>
     </g>
     <g id="text_4">
      <!-- 2022-04 -->
      <g transform="translate(347.315877 543.867081) rotate(-45) scale(0.1 -0.1)">
       <defs>
        <path id="DejaVuSans-34" d="M 2419 4116 
L 825 1625 
L 2419 1625 
L 2419 4116 
z
M 2253 4666 
L 3047 4666 
L 3047 1625 
L 3713 1625 
L 3713 1100 
L 3047 1100 
L 3047 0 
L 2419 0 
L 2419 1100 
L 313 1100 
L 313 1709 
L 2253 4666 
z
" transform="scale(0.015625)"/>
       </defs>
       <use xlink:href="#DejaVuSans-32"/>
       <use xlink:href="#DejaVuSans-30" transform="translate(63.623047 0)"/>
       <use xlink:href="#DejaVuSans-32" transform="translate(127.246094 0)"/>
       <use xlink:href="#DejaVuSans-32" transform="translate(190.869141 0)"/>
       <use xlink:href="#DejaVuSans-2d" transform="translate(254.492188 0)"/>
       <use xlink:href="#DejaVuSans-30" transform="translate(290.576172 0)"/>
       <use xlink:href="#DejaVuSans-34" transform="translate(354.199219 0)"/>
      </g>
     </g>
    </g>
    <g id="xtick_5">
     <g id="line2d_9">
      <path d="M 449.572765 501.949265 
L 449.572765 25.3575 
" clip-path="url(#p131022f813)" style="fill: none; stroke: #b0b0b0; stroke-opacity: 0.3; stroke-width: 0.8; stroke-linecap: square"/>
     </g>
     <g id="line2d_10">
      <g>
       <use xlink:href="#m2616dcd89a" x="449.572765" y="501.949265" style="stroke: #000000; stroke-width: 0.8"/>
      </g>
     </g>
     <g id="text_5">
      <!-- 2022-05 -->
      <g transform="translate(436.751483 543.867081) rotate(-45) scale(0.1 -0.1)">
       <defs>
        <path id="DejaVuSans-35" d="M 691 4666 
L 3169 4666 
L 3169 4134 
L 1269 4134 
L 1269 2991 
Q 1406 3038 1543 3061 
Q 1681 3084 1819 3084 
Q 2600 3084 3056 2656 
Q 3513 2228 3513 1497 
Q 3513 744 3044 326 
Q 2575 -91 1722 -91 
Q 1428 -91 1123 -41 
Q 819 9 494 109 
L 494 744 
Q 775 591 1075 516 
Q 1375 441 1709 441 
Q 2250 441 2565 725 
Q 2881 1009 2881 1497 
Q 2881 1984 2565 2268 
Q 2250 2553 1709 2553 
Q 1456 2553 1204 2497 
Q 953 2441 691 2322 
L 691 4666 
z
" transform="scale(0.015625)"/>
       </defs>
       <use xlink:href="#DejaVuSans-32"/>
       <use xlink:href="#DejaVuSans-30" transform="translate(63.623047 0)"/>
       <use xlink:href="#DejaVuSans-32" transform="translate(127.246094 0)"/>
       <use xlink:href="#DejaVuSans-32" transform="translate(190.869141 0)"/>
       <use xlink:href="#DejaVuSans-2d" transform="translate(254.492188 0)"/>
       <use xlink:href="#DejaVuSans-30" transform="translate(290.576172 0)"/>
       <use xlink:href="#DejaVuSans-35" transform="translate(354.199219 0)"/>
      </g>
     </g>
    </g>
    <g id="xtick_6">
     <g id="line2d_11">
      <path d="M 541.989558 501.949265 
L 541.989558 25.3575 
" clip-path="url(#p131022f813)" style="fill: none; stroke: #b0b0b0; stroke-opacity: 0.3; stroke-width: 0.8; stroke-linecap: square"/>
     </g>
     <g id="line2d_12">
      <g>
       <use xlink:href="#m2616dcd89a" x="541.989558" y="501.949265" style="stroke: #000000; stroke-width: 0.8"/>
      </g>
     </g>
     <g id="text_6">
      <!-- 2022-06 -->
      <g transform="translate(529.168276 543.867081) rotate(-45) scale(0.1 -0.1)">
       <defs>
        <path id="DejaVuSans-36" d="M 2113 2584 
Q 1688 2584 1439 2293 
Q 1191 2003 1191 1497 
Q 1191 994 1439 701 
Q 1688 409 2113 409 
Q 2538 409 2786 701 
Q 3034 994 3034 1497 
Q 3034 2003 2786 2293 
Q 2538 2584 2113 2584 
z
M 3366 4563 
L 3366 3988 
Q 3128 4100 2886 4159 
Q 2644 4219 2406 4219 
Q 1781 4219 1451 3797 
Q 1122 3375 1075 2522 
Q 1259 2794 1537 2939 
Q 1816 3084 2150 3084 
Q 2853 3084 3261 2657 
Q 3669 2231 3669 1497 
Q 3669 778 3244 343 
Q 2819 -91 2113 -91 
Q 1303 -91 875 529 
Q 447 1150 447 2328 
Q 447 3434 972 4092 
Q 1497 4750 2381 4750 
Q 2619 4750 2861 4703 
Q 3103 4656 3366 4563 
z
" transform="scale(0.015625)"/>
       </defs>
       <use xlink:href="#DejaVuSans-32"/>
       <use xlink:href="#DejaVuSans-30" transform="translate(63.623047 0)"/>
       <use xlink:href="#DejaVuSans-32" transform="translate(127.246094 0)"/>
       <use xlink:href="#DejaVuSans-32" transform="translate(190.869141 0)"/>
       <use xlink:href="#DejaVuSans-2d" transform="translate(254.492188 0)"/>
       <use xlink:href="#DejaVuSans-30" transform="translate(290.576172 0)"/>
       <use xlink:href="#DejaVuSans-36" transform="translate(354.199219 0)"/>
      </g>
     </g>
    </g>
    <g id="xtick_7">
     <g id="line2d_13">
      <path d="M 631.425164 501.949265 
L 631.425164 25.3575 
" clip-path="url(#p131022f813)" style="fill: none; stroke: #b0b0b0; stroke-opacity: 0.3; stroke-width: 0.8; stroke-linecap: square"/>
     </g>
     <g id="line2d_14">
      <g>
       <use xlink:href="#m2616dcd89a" x="631.425164" y="501.949265" style="stroke: #000000; stroke-width: 0.8"/>
      </g>
     </g>
     <g id="text_7">
      <!-- 2022-07 -->
      <g transform="translate(618.603882 543.867081) rotate(-45) scale(0.1 -0.1)">
       <defs>
        <path id="DejaVuSans-37" d="M 525 4666 
L 3525 4666 
L 3525 4397 
L 1831 0 
L 1172 0 
L 2766 4134 
L 525 4134 
L 525 4666 
z
" transform="scale(0.015625)"/>
       </defs>
       <use xlink:href="#DejaVuSans-32"/>
       <use xlink:href="#DejaVuSans-30" transform="translate(63.623047 0)"/>
       <use xlink:href="#DejaVuSans-32" transform="translate(127.246094 0)"/>
       <use xlink:href="#DejaVuSans-32" transform="translate(190.869141 0)"/>
       <use xlink:href="#DejaVuSans-2d" transform="translate(254.492188 0)"/>
       <use xlink:href="#DejaVuSans-30" transform="translate(290.576172 0)"/>
       <use xlink:href="#DejaVuSans-37" transform="translate(354.199219 0)"/>
      </g>
     </g>
    </g>
    <g id="xtick_8">
     <g id="line2d_15">
      <path d="M 723.841957 501.949265 
L 723.841957 25.3575 
" clip-path="url(#p131022f813)" style="fill: none; stroke: #b0b0b0; stroke-opacity: 0.3; stroke-width: 0.8; stroke-linecap: square"/>
     </g>
     <g id="line2d_16">
      <g>
       <use xlink:href="#m2616dcd89a" x="723.841957" y="501.949265" style="stroke: #000000; stroke-width: 0.8"/>
      </g>
     </g>
     <g id="text_8">
      <!-- 2022-08 -->
      <g transform="translate(711.020675 543.867081) rotate(-45) scale(0.1 -0.1)">
       <defs>
        <path id="DejaVuSans-38" d="M 2034 2216 
Q 1584 2216 1326 1975 
Q 1069 1734 1069 1313 
Q 1069 891 1326 650 
Q 1584 409 2034 409 
Q 2484 409 2743 651 
Q 3003 894 3003 1313 
Q 3003 1734 2745 1975 
Q 2488 2216 2034 2216 
z
M 1403 2484 
Q 997 2584 770 2862 
Q 544 3141 544 3541 
Q 544 4100 942 4425 
Q 1341 4750 2034 4750 
Q 2731 4750 3128 4425 
Q 3525 4100 3525 3541 
Q 3525 3141 3298 2862 
Q 3072 2584 2669 2484 
Q 3125 2378 3379 2068 
Q 3634 1759 3634 1313 
Q 3634 634 3220 271 
Q 2806 -91 2034 -91 
Q 1263 -91 848 271 
Q 434 634 434 1313 
Q 434 1759 690 2068 
Q 947 2378 1403 2484 
z
M 1172 3481 
Q 1172 3119 1398 2916 
Q 1625 2713 2034 2713 
Q 2441 2713 2670 2916 
Q 2900 3119 2900 3481 
Q 2900 3844 2670 4047 
Q 2441 4250 2034 4250 
Q 1625 4250 1398 4047 
Q 1172 3844 1172 3481 
z
" transform="scale(0.015625)"/>
       </defs>
       <use xlink:href="#DejaVuSans-32"/>
       <use xlink:href="#DejaVuSans-30" transform="translate(63.623047 0)"/>
       <use xlink:href="#DejaVuSans-32" transform="translate(127.246094 0)"/>
       <use xlink:href="#DejaVuSans-32" transform="translate(190.869141 0)"/>
       <use xlink:href="#DejaVuSans-2d" transform="translate(254.492188 0)"/>
       <use xlink:href="#DejaVuSans-30" transform="translate(290.576172 0)"/>
       <use xlink:href="#DejaVuSans-38" transform="translate(354.199219 0)"/>
      </g>
     </g>
    </g>
    <g id="xtick_9">
     <g id="line2d_17">
      <path d="M 816.25875 501.949265 
L 816.25875 25.3575 
" clip-path="url(#p131022f813)" style="fill: none; stroke: #b0b0b0; stroke-opacity: 0.3; stroke-width: 0.8; stroke-linecap: square"/>
     </g>
     <g id="line2d_18">
      <g>
       <use xlink:href="#m2616dcd89a" x="816.25875" y="501.949265" style="stroke: #000000; stroke-width: 0.8"/>
      </g>
     </g>
     <g id="text_9">
      <!-- 2022-09 -->
      <g transform="translate(803.437468 543.867081) rotate(-45) scale(0.1 -0.1)">
       <defs>
        <path id="DejaVuSans-39" d="M 703 97 
L 703 672 
Q 941 559 1184 500 
Q 1428 441 1663 441 
Q 2288 441 2617 861 
Q 2947 1281 2994 2138 
Q 2813 1869 2534 1725 
Q 2256 1581 1919 1581 
Q 1219 1581 811 2004 
Q 403 2428 403 3163 
Q 403 3881 828 4315 
Q 1253 4750 1959 4750 
Q 2769 4750 3195 4129 
Q 3622 3509 3622 2328 
Q 3622 1225 3098 567 
Q 2575 -91 1691 -91 
Q 1453 -91 1209 -44 
Q 966 3 703 97 
z
M 1959 2075 
Q 2384 2075 2632 2365 
Q 2881 2656 2881 3163 
Q 2881 3666 2632 3958 
Q 2384 4250 1959 4250 
Q 1534 4250 1286 3958 
Q 1038 3666 1038 3163 
Q 1038 2656 1286 2365 
Q 1534 2075 1959 2075 
z
" transform="scale(0.015625)"/>
       </defs>
       <use xlink:href="#DejaVuSans-32"/>
       <use xlink:href="#DejaVuSans-30" transform="translate(63.623047 0)"/>
       <use xlink:href="#DejaVuSans-32" transform="translate(127.246094 0)"/>
       <use xlink:href="#DejaVuSans-32" transform="translate(190.869141 0)"/>
       <use xlink:href="#DejaVuSans-2d" transform="translate(254.492188 0)"/>
       <use xlink:href="#DejaVuSans-30" transform="translate(290.576172 0)"/>
       <use xlink:href="#DejaVuSans-39" transform="translate(354.199219 0)"/>
      </g>
     </g>
    </g>
    <g id="xtick_10">
     <g id="line2d_19">
      <path d="M 905.694356 501.949265 
L 905.694356 25.3575 
" clip-path="url(#p131022f813)" style="fill: none; stroke: #b0b0b0; stroke-opacity: 0.3; stroke-width: 0.8; stroke-linecap: square"/>
     </g>
     <g id="line2d_20">
      <g>
       <use xlink:href="#m2616dcd89a" x="905.694356" y="501.949265" style="stroke: #000000; stroke-width: 0.8"/>
      </g>
     </g>
     <g id="text_10">
      <!-- 2022-10 -->
      <g transform="translate(892.873074 543.867081) rotate(-45) scale(0.1 -0.1)">
       <use xlink:href="#DejaVuSans-32"/>
       <use xlink:href="#DejaVuSans-30" transform="translate(63.623047 0)"/>
       <use xlink:href="#DejaVuSans-32" transform="translate(127.246094 0)"/>
       <use xlink:href="#DejaVuSans-32" transform="translate(190.869141 0)"/>
       <use xlink:href="#DejaVuSans-2d" transform="translate(254.492188 0)"/>
       <use xlink:href="#DejaVuSans-31" transform="translate(290.576172 0)"/>
       <use xlink:href="#DejaVuSans-30" transform="translate(354.199219 0)"/>
      </g>
     </g>
    </g>
    <g id="text_11">
     <!-- Date -->
     <g transform="translate(506.780313 558.455768) scale(0.12 -0.12)">
      <defs>
       <path id="DejaVuSans-44" d="M 1259 4147 
L 1259 519 
L 2022 519 
Q 2988 519 3436 956 
Q 3884 1394 3884 2338 
Q 3884 3275 3436 3711 
Q 2988 4147 2022 4147 
L 1259 4147 
z
M 628 4666 
L 1925 4666 
Q 3281 4666 3915 4102 
Q 4550 3538 4550 2338 
Q 4550 1131 3912 565 
Q 3275 0 1925 0 
L 628 0 
L 628 4666 
z
" transform="scale(0.015625)"/>
       <path id="DejaVuSans-61" d="M 2194 1759 
Q 1497 1759 1228 1600 
Q 959 1441 959 1056 
Q 959 750 1161 570 
Q 1363 391 1709 391 
Q 2188 391 2477 730 
Q 2766 1069 2766 1631 
L 2766 1759 
L 2194 1759 
z
M 3341 1997 
L 3341 0 
L 2766 0 
L 2766 531 
Q 2569 213 2275 61 
Q 1981 -91 1556 -91 
Q 1019 -91 701 211 
Q 384 513 384 1019 
Q 384 1609 779 1909 
Q 1175 2209 1959 2209 
L 2766 2209 
L 2766 2266 
Q 2766 2663 2505 2880 
Q 2244 3097 1772 3097 
Q 1472 3097 1187 3025 
Q 903 2953 641 2809 
L 641 3341 
Q 956 3463 1253 3523 
Q 1550 3584 1831 3584 
Q 2591 3584 2966 3190 
Q 3341 2797 3341 1997 
z
" transform="scale(0.015625)"/>
       <path id="DejaVuSans-74" d="M 1172 4494 
L 1172 3500 
L 2356 3500 
L 2356 3053 
L 1172 3053 
L 1172 1153 
Q 1172 725 1289 603 
Q 1406 481 1766 481 
L 2356 481 
L 2356 0 
L 1766 0 
Q 1100 0 847 248 
Q 594 497 594 1153 
L 594 3053 
L 172 3053 
L 172 3500 
L 594 3500 
L 594 4494 
L 1172 4494 
z
" transform="scale(0.015625)"/>
       <path id="DejaVuSans-65" d="M 3597 1894 
L 3597 1613 
L 953 1613 
Q 991 1019 1311 708 
Q 1631 397 2203 397 
Q 2534 397 2845 478 
Q 3156 559 3463 722 
L 3463 178 
Q 3153 47 2828 -22 
Q 2503 -91 2169 -91 
Q 1331 -91 842 396 
Q 353 884 353 1716 
Q 353 2575 817 3079 
Q 1281 3584 2069 3584 
Q 2775 3584 3186 3129 
Q 3597 2675 3597 1894 
z
M 3022 2063 
Q 3016 2534 2758 2815 
Q 2500 3097 2075 3097 
Q 1594 3097 1305 2825 
Q 1016 2553 972 2059 
L 3022 2063 
z
" transform="scale(0.015625)"/>
      </defs>
      <use xlink:href="#DejaVuSans-44"/>
      <use xlink:href="#DejaVuSans-61" transform="translate(77.001953 0)"/>
      <use xlink:href="#DejaVuSans-74" transform="translate(138.28125 0)"/>
      <use xlink:href="#DejaVuSans-65" transform="translate(177.490234 0)"/>
     </g>
    </g>
   </g>
   <g id="matplotlib.axis_2">
    <g id="ytick_1">
     <g id="line2d_21">
      <path d="M 48.90125 488.158158 
L 993.34125 488.158158 
" clip-path="url(#p131022f813)" style="fill: none; stroke: #b0b0b0; stroke-opacity: 0.3; stroke-width: 0.8; stroke-linecap: square"/>
     </g>
     <g id="line2d_22">
      <defs>
       <path id="mdfd4377a36" d="M 0 0 
L -3.5 0 
" style="stroke: #000000; stroke-width: 0.8"/>
      </defs>
      <g>
       <use xlink:href="#mdfd4377a36" x="48.90125" y="488.158158" style="stroke: #000000; stroke-width: 0.8"/>
      </g>
     </g>
     <g id="text_12">
      <!-- 140 -->
      <g transform="translate(22.81375 491.957377) scale(0.1 -0.1)">
       <use xlink:href="#DejaVuSans-31"/>
       <use xlink:href="#DejaVuSans-34" transform="translate(63.623047 0)"/>
       <use xlink:href="#DejaVuSans-30" transform="translate(127.246094 0)"/>
      </g>
     </g>
    </g>
    <g id="ytick_2">
     <g id="line2d_23">
      <path d="M 48.90125 426.331979 
L 993.34125 426.331979 
" clip-path="url(#p131022f813)" style="fill: none; stroke: #b0b0b0; stroke-opacity: 0.3; stroke-width: 0.8; stroke-linecap: square"/>
     </g>
     <g id="line2d_24">
      <g>
       <use xlink:href="#mdfd4377a36" x="48.90125" y="426.331979" style="stroke: #000000; stroke-width: 0.8"/>
      </g>
     </g>
     <g id="text_13">
      <!-- 145 -->
      <g transform="translate(22.81375 430.131198) scale(0.1 -0.1)">
       <use xlink:href="#DejaVuSans-31"/>
       <use xlink:href="#DejaVuSans-34" transform="translate(63.623047 0)"/>
       <use xlink:href="#DejaVuSans-35" transform="translate(127.246094 0)"/>
      </g>
     </g>
    </g>
    <g id="ytick_3">
     <g id="line2d_25">
      <path d="M 48.90125 364.505799 
L 993.34125 364.505799 
" clip-path="url(#p131022f813)" style="fill: none; stroke: #b0b0b0; stroke-opacity: 0.3; stroke-width: 0.8; stroke-linecap: square"/>
     </g>
     <g id="line2d_26">
      <g>
       <use xlink:href="#mdfd4377a36" x="48.90125" y="364.505799" style="stroke: #000000; stroke-width: 0.8"/>
      </g>
     </g>
     <g id="text_14">
      <!-- 150 -->
      <g transform="translate(22.81375 368.305018) scale(0.1 -0.1)">
       <use xlink:href="#DejaVuSans-31"/>
       <use xlink:href="#DejaVuSans-35" transform="translate(63.623047 0)"/>
       <use xlink:href="#DejaVuSans-30" transform="translate(127.246094 0)"/>
      </g>
     </g>
    </g>
    <g id="ytick_4">
     <g id="line2d_27">
      <path d="M 48.90125 302.67962 
L 993.34125 302.67962 
" clip-path="url(#p131022f813)" style="fill: none; stroke: #b0b0b0; stroke-opacity: 0.3; stroke-width: 0.8; stroke-linecap: square"/>
     </g>
     <g id="line2d_28">
      <g>
       <use xlink:href="#mdfd4377a36" x="48.90125" y="302.67962" style="stroke: #000000; stroke-width: 0.8"/>
      </g>
     </g>
     <g id="text_15">
      <!-- 155 -->
      <g transform="translate(22.81375 306.478838) scale(0.1 -0.1)">
       <use xlink:href="#DejaVuSans-31"/>
       <use xlink:href="#DejaVuSans-35" transform="translate(63.623047 0)"/>
       <use xlink:href="#DejaVuSans-35" transform="translate(127.246094 0)"/>
      </g>
     </g>
    </g>
    <g id="ytick_5">
     <g id="line2d_29">
      <path d="M 48.90125 240.85344 
L 993.34125 240.85344 
" clip-path="url(#p131022f813)" style="fill: none; stroke: #b0b0b0; stroke-opacity: 0.3; stroke-width: 0.8; stroke-linecap: square"/>
     </g>
     <g id="line2d_30">
      <g>
       <use xlink:href="#mdfd4377a36" x="48.90125" y="240.85344" style="stroke: #000000; stroke-width: 0.8"/>
      </g>
     </g>
     <g id="text_16">
      <!-- 160 -->
      <g transform="translate(22.81375 244.652659) scale(0.1 -0.1)">
       <use xlink:href="#DejaVuSans-31"/>
       <use xlink:href="#DejaVuSans-36" transform="translate(63.623047 0)"/>
       <use xlink:href="#DejaVuSans-30" transform="translate(127.246094 0)"/>
      </g>
     </g>
    </g>
    <g id="ytick_6">
     <g id="line2d_31">
      <path d="M 48.90125 179.02726 
L 993.34125 179.02726 
" clip-path="url(#p131022f813)" style="fill: none; stroke: #b0b0b0; stroke-opacity: 0.3; stroke-width: 0.8; stroke-linecap: square"/>
     </g>
     <g id="line2d_32">
      <g>
       <use xlink:href="#mdfd4377a36" x="48.90125" y="179.02726" style="stroke: #000000; stroke-width: 0.8"/>
      </g>
     </g>
     <g id="text_17">
      <!-- 165 -->
      <g transform="translate(22.81375 182.826479) scale(0.1 -0.1)">
       <use xlink:href="#DejaVuSans-31"/>
       <use xlink:href="#DejaVuSans-36" transform="translate(63.623047 0)"/>
       <use xlink:href="#DejaVuSans-35" transform="translate(127.246094 0)"/>
      </g>
     </g>
    </g>
    <g id="ytick_7">
     <g id="line2d_33">
      <path d="M 48.90125 117.201081 
L 993.34125 117.201081 
" clip-path="url(#p131022f813)" style="fill: none; stroke: #b0b0b0; stroke-opacity: 0.3; stroke-width: 0.8; stroke-linecap: square"/>
     </g>
     <g id="line2d_34">
      <g>
       <use xlink:href="#mdfd4377a36" x="48.90125" y="117.201081" style="stroke: #000000; stroke-width: 0.8"/>
      </g>
     </g>
     <g id="text_18">
      <!-- 170 -->
      <g transform="translate(22.81375 121.000299) scale(0.1 -0.1)">
       <use xlink:href="#DejaVuSans-31"/>
       <use xlink:href="#DejaVuSans-37" transform="translate(63.623047 0)"/>
       <use xlink:href="#DejaVuSans-30" transform="translate(127.246094 0)"/>
      </g>
     </g>
    </g>
    <g id="ytick_8">
     <g id="line2d_35">
      <path d="M 48.90125 55.374901 
L 993.34125 55.374901 
" clip-path="url(#p131022f813)" style="fill: none; stroke: #b0b0b0; stroke-opacity: 0.3; stroke-width: 0.8; stroke-linecap: square"/>
     </g>
     <g id="line2d_36">
      <g>
       <use xlink:href="#mdfd4377a36" x="48.90125" y="55.374901" style="stroke: #000000; stroke-width: 0.8"/>
      </g>
     </g>
     <g id="text_19">
      <!-- 175 -->
      <g transform="translate(22.81375 59.17412) scale(0.1 -0.1)">
       <use xlink:href="#DejaVuSans-31"/>
       <use xlink:href="#DejaVuSans-37" transform="translate(63.623047 0)"/>
       <use xlink:href="#DejaVuSans-35" transform="translate(127.246094 0)"/>
      </g>
     </g>
    </g>
    <g id="text_20">
     <!-- Stock Price ($) -->
     <g transform="translate(16.318125 307.209632) rotate(-90) scale(0.12 -0.12)">
      <defs>
       <path id="DejaVuSans-53" d="M 3425 4513 
L 3425 3897 
Q 3066 4069 2747 4153 
Q 2428 4238 2131 4238 
Q 1616 4238 1336 4038 
Q 1056 3838 1056 3469 
Q 1056 3159 1242 3001 
Q 1428 2844 1947 2747 
L 2328 2669 
Q 3034 2534 3370 2195 
Q 3706 1856 3706 1288 
Q 3706 609 3251 259 
Q 2797 -91 1919 -91 
Q 1588 -91 1214 -16 
Q 841 59 441 206 
L 441 856 
Q 825 641 1194 531 
Q 1563 422 1919 422 
Q 2459 422 2753 634 
Q 3047 847 3047 1241 
Q 3047 1584 2836 1778 
Q 2625 1972 2144 2069 
L 1759 2144 
Q 1053 2284 737 2584 
Q 422 2884 422 3419 
Q 422 4038 858 4394 
Q 1294 4750 2059 4750 
Q 2388 4750 2728 4690 
Q 3069 4631 3425 4513 
z
" transform="scale(0.015625)"/>
       <path id="DejaVuSans-6f" d="M 1959 3097 
Q 1497 3097 1228 2736 
Q 959 2375 959 1747 
Q 959 1119 1226 758 
Q 1494 397 1959 397 
Q 2419 397 2687 759 
Q 2956 1122 2956 1747 
Q 2956 2369 2687 2733 
Q 2419 3097 1959 3097 
z
M 1959 3584 
Q 2709 3584 3137 3096 
Q 3566 2609 3566 1747 
Q 3566 888 3137 398 
Q 2709 -91 1959 -91 
Q 1206 -91 779 398 
Q 353 888 353 1747 
Q 353 2609 779 3096 
Q 1206 3584 1959 3584 
z
" transform="scale(0.015625)"/>
       <path id="DejaVuSans-63" d="M 3122 3366 
L 3122 2828 
Q 2878 2963 2633 3030 
Q 2388 3097 2138 3097 
Q 1578 3097 1268 2742 
Q 959 2388 959 1747 
Q 959 1106 1268 751 
Q 1578 397 2138 397 
Q 2388 397 2633 464 
Q 2878 531 3122 666 
L 3122 134 
Q 2881 22 2623 -34 
Q 2366 -91 2075 -91 
Q 1284 -91 818 406 
Q 353 903 353 1747 
Q 353 2603 823 3093 
Q 1294 3584 2113 3584 
Q 2378 3584 2631 3529 
Q 2884 3475 3122 3366 
z
" transform="scale(0.015625)"/>
       <path id="DejaVuSans-6b" d="M 581 4863 
L 1159 4863 
L 1159 1991 
L 2875 3500 
L 3609 3500 
L 1753 1863 
L 3688 0 
L 2938 0 
L 1159 1709 
L 1159 0 
L 581 0 
L 581 4863 
z
" transform="scale(0.015625)"/>
       <path id="DejaVuSans-20" transform="scale(0.015625)"/>
       <path id="DejaVuSans-50" d="M 1259 4147 
L 1259 2394 
L 2053 2394 
Q 2494 2394 2734 2622 
Q 2975 2850 2975 3272 
Q 2975 3691 2734 3919 
Q 2494 4147 2053 4147 
L 1259 4147 
z
M 628 4666 
L 2053 4666 
Q 2838 4666 3239 4311 
Q 3641 3956 3641 3272 
Q 3641 2581 3239 2228 
Q 2838 1875 2053 1875 
L 1259 1875 
L 1259 0 
L 628 0 
L 628 4666 
z
" transform="scale(0.015625)"/>
       <path id="DejaVuSans-72" d="M 2631 2963 
Q 2534 3019 2420 3045 
Q 2306 3072 2169 3072 
Q 1681 3072 1420 2755 
Q 1159 2438 1159 1844 
L 1159 0 
L 581 0 
L 581 3500 
L 1159 3500 
L 1159 2956 
Q 1341 3275 1631 3429 
Q 1922 3584 2338 3584 
Q 2397 3584 2469 3576 
Q 2541 3569 2628 3553 
L 2631 2963 
z
" transform="scale(0.015625)"/>
       <path id="DejaVuSans-69" d="M 603 3500 
L 1178 3500 
L 1178 0 
L 603 0 
L 603 3500 
z
M 603 4863 
L 1178 4863 
L 1178 4134 
L 603 4134 
L 603 4863 
z
" transform="scale(0.015625)"/>
       <path id="DejaVuSans-28" d="M 1984 4856 
Q 1566 4138 1362 3434 
Q 1159 2731 1159 2009 
Q 1159 1288 1364 580 
Q 1569 -128 1984 -844 
L 1484 -844 
Q 1016 -109 783 600 
Q 550 1309 550 2009 
Q 550 2706 781 3412 
Q 1013 4119 1484 4856 
L 1984 4856 
z
" transform="scale(0.015625)"/>
       <path id="DejaVuSans-24" d="M 2163 -941 
L 1850 -941 
L 1847 0 
Q 1519 6 1191 76 
Q 863 147 531 288 
L 531 850 
Q 850 650 1176 548 
Q 1503 447 1850 444 
L 1850 1869 
Q 1159 1981 845 2250 
Q 531 2519 531 2988 
Q 531 3497 872 3790 
Q 1213 4084 1850 4128 
L 1850 4863 
L 2163 4863 
L 2163 4138 
Q 2453 4125 2725 4076 
Q 2997 4028 3256 3944 
L 3256 3397 
Q 2997 3528 2723 3600 
Q 2450 3672 2163 3684 
L 2163 2350 
Q 2872 2241 3206 1959 
Q 3541 1678 3541 1191 
Q 3541 663 3186 358 
Q 2831 53 2163 6 
L 2163 -941 
z
M 1850 2406 
L 1850 3688 
Q 1488 3647 1297 3481 
Q 1106 3316 1106 3041 
Q 1106 2772 1282 2622 
Q 1459 2472 1850 2406 
z
M 2163 1806 
L 2163 453 
Q 2559 506 2761 678 
Q 2963 850 2963 1131 
Q 2963 1406 2770 1568 
Q 2578 1731 2163 1806 
z
" transform="scale(0.015625)"/>
       <path id="DejaVuSans-29" d="M 513 4856 
L 1013 4856 
Q 1481 4119 1714 3412 
Q 1947 2706 1947 2009 
Q 1947 1309 1714 600 
Q 1481 -109 1013 -844 
L 513 -844 
Q 928 -128 1133 580 
Q 1338 1288 1338 2009 
Q 1338 2731 1133 3434 
Q 928 4138 513 4856 
z
" transform="scale(0.015625)"/>
      </defs>
      <use xlink:href="#DejaVuSans-53"/>
      <use xlink:href="#DejaVuSans-74" transform="translate(63.476562 0)"/>
      <use xlink:href="#DejaVuSans-6f" transform="translate(102.685547 0)"/>
      <use xlink:href="#DejaVuSans-63" transform="translate(163.867188 0)"/>
      <use xlink:href="#DejaVuSans-6b" transform="translate(218.847656 0)"/>
      <use xlink:href="#DejaVuSans-20" transform="translate(276.757812 0)"/>
      <use xlink:href="#DejaVuSans-50" transform="translate(308.544922 0)"/>
      <use xlink:href="#DejaVuSans-72" transform="translate(367.097656 0)"/>
      <use xlink:href="#DejaVuSans-69" transform="translate(408.210938 0)"/>
      <use xlink:href="#DejaVuSans-63" transform="translate(435.994141 0)"/>
      <use xlink:href="#DejaVuSans-65" transform="translate(490.974609 0)"/>
      <use xlink:href="#DejaVuSans-20" transform="translate(552.498047 0)"/>
      <use xlink:href="#DejaVuSans-28" transform="translate(584.285156 0)"/>
      <use xlink:href="#DejaVuSans-24" transform="translate(623.298828 0)"/>
      <use xlink:href="#DejaVuSans-29" transform="translate(686.921875 0)"/>
     </g>
    </g>
   </g>
   <g id="line2d_37">
    <path d="M 91.830341 346.079836 
L 94.811528 366.293969 
L 97.792715 333.802782 
L 100.773902 298.005925 
L 103.755088 359.87979 
L 106.736275 356.589527 
L 109.717462 286.057853 
L 112.698649 312.937615 
L 115.679836 355.623303 
L 118.661023 314.923091 
L 121.64221 349.127507 
L 124.623396 346.149972 
L 127.604583 316.888675 
L 130.58577 393.888807 
L 133.566957 384.014489 
L 136.548144 338.066519 
L 139.529331 352.032021 
L 142.510518 300.131024 
L 145.491705 342.879475 
L 148.472891 359.076732 
L 151.454078 249.894465 
L 154.435265 310.306648 
L 157.416452 297.187252 
L 160.397639 350.401648 
L 163.378826 315.700475 
L 166.360013 289.449989 
L 169.341199 334.424582 
L 172.322386 276.06046 
L 175.303573 310.656676 
L 178.28476 297.685051 
L 181.265947 307.786347 
L 184.247134 215.468873 
L 187.228321 283.510861 
L 190.209508 321.192337 
L 193.190694 250.505229 
L 196.171881 325.485729 
L 199.153068 271.746859 
L 202.134255 351.604975 
L 205.115442 327.712026 
L 208.096629 270.788959 
L 211.077816 250.46405 
L 214.059003 271.383188 
L 217.040189 282.027397 
L 220.021376 289.017802 
L 223.002563 332.918015 
L 225.98375 305.107966 
L 228.964937 295.934928 
L 231.946124 240.181544 
L 234.927311 267.302904 
L 237.908497 346.206238 
L 240.889684 269.637498 
L 243.870871 296.895535 
L 246.852058 308.765918 
L 249.833245 262.09899 
L 252.814432 247.765205 
L 255.795619 252.768894 
L 258.776806 319.830794 
L 261.757992 301.629564 
L 267.720366 257.100741 
L 270.701553 312.726655 
L 273.68274 303.559413 
L 276.663927 339.487798 
L 279.645114 344.646646 
L 282.626301 272.001327 
L 285.607487 253.742149 
L 288.588674 308.669774 
L 291.569861 270.74788 
L 294.551048 296.561108 
L 297.532235 335.929471 
L 300.513422 300.629478 
L 303.494609 259.028812 
L 306.475795 319.465157 
L 309.456982 262.147398 
L 312.438169 419.417925 
L 315.419356 293.784977 
L 318.400543 323.067004 
L 321.38173 339.389575 
L 324.362917 326.86989 
L 327.344104 405.949772 
L 330.32529 342.278666 
L 333.306477 322.752471 
L 336.287664 283.001284 
L 339.268851 358.825668 
L 342.250038 371.312624 
L 345.231225 361.596084 
L 348.212412 310.624397 
L 351.193598 333.917962 
L 354.174785 367.224733 
L 357.155972 329.916921 
L 360.137159 346.660306 
L 363.118346 315.550203 
L 366.099533 378.660468 
L 369.08072 365.816553 
L 372.061907 369.158236 
L 375.043093 409.757436 
L 378.02428 345.23787 
L 381.005467 347.192058 
L 383.986654 357.235435 
L 386.967841 366.569669 
L 389.949028 410.705313 
L 392.930215 374.028318 
L 395.911402 371.248225 
L 398.892588 388.293156 
L 401.873775 364.397347 
L 404.854962 343.192111 
L 407.836149 287.860904 
L 410.817336 350.886617 
L 413.798523 347.223513 
L 416.77971 358.836283 
L 419.760896 426.43239 
L 422.742083 355.300078 
L 425.72327 351.027875 
L 428.704457 260.716176 
L 431.685644 357.942481 
L 434.666831 338.221752 
L 437.648018 349.184428 
L 440.629205 389.628024 
L 443.610391 302.150847 
L 446.591578 314.8141 
L 449.572765 311.422227 
L 452.553952 372.457094 
L 455.535139 284.542423 
L 458.516326 386.34367 
L 461.497513 310.238706 
L 464.478699 248.3295 
L 467.459886 363.821295 
L 470.441073 345.491292 
L 473.42226 318.115357 
L 476.403447 337.74105 
L 479.384634 373.767845 
L 482.365821 310.814615 
L 485.347008 349.8148 
L 488.328194 289.830686 
L 491.309381 338.442322 
L 494.290568 243.726675 
L 497.271755 327.119845 
L 500.252942 306.813279 
L 503.234129 261.454462 
L 506.215316 334.028061 
L 509.196503 276.640837 
L 512.177689 233.279148 
L 515.158876 338.07381 
L 518.140063 268.258249 
L 521.12125 262.125994 
L 524.102437 239.423414 
L 527.083624 310.97554 
L 530.064811 310.747799 
L 533.045997 239.092644 
L 536.027184 244.147925 
L 539.008371 242.608391 
L 541.989558 235.815139 
L 544.970745 270.694548 
L 547.951932 233.694856 
L 550.933119 228.325699 
L 553.914306 262.633499 
L 556.895492 163.912941 
L 559.876679 212.597885 
L 562.857866 271.480419 
L 565.839053 200.113475 
L 568.82024 257.877571 
L 571.801427 189.851522 
L 574.782614 173.477487 
L 577.763801 244.390849 
L 580.744987 175.787355 
L 583.726174 193.879646 
L 586.707361 176.458085 
L 589.688548 134.447458 
L 592.669735 211.869789 
L 595.650922 228.785848 
L 598.632109 231.985559 
L 601.613295 227.521035 
L 604.594482 198.496432 
L 607.575669 181.469922 
L 610.556856 182.462304 
L 613.538043 160.756226 
L 616.51923 189.788588 
L 619.500417 135.296657 
L 622.481604 198.096478 
L 625.46279 86.5518 
L 628.443977 163.54596 
L 631.425164 217.967221 
L 634.406351 225.42827 
L 637.387538 167.45474 
L 640.368725 193.408231 
L 643.349912 158.514593 
L 646.331098 167.442988 
L 649.312285 187.810518 
L 652.293472 216.744338 
L 655.274659 241.859896 
L 658.255846 202.671725 
L 661.237033 154.888252 
L 664.21822 179.368439 
L 667.199407 234.277308 
L 670.180593 182.496084 
L 673.16178 175.577745 
L 676.142967 223.703065 
L 679.124154 186.347744 
L 682.105341 191.112299 
L 685.086528 236.975412 
L 688.067715 182.687781 
L 691.048902 176.617143 
L 694.030088 158.774621 
L 697.011275 161.458475 
L 699.992462 253.317698 
L 702.973649 238.722276 
L 705.954836 186.602652 
L 711.91721 190.297219 
L 714.898396 68.393762 
L 717.879583 192.081651 
L 720.86077 173.110763 
L 723.841957 181.847612 
L 726.823144 195.095208 
L 729.804331 232.99157 
L 732.785518 195.189597 
L 735.766705 254.065393 
L 738.747891 236.234646 
L 741.729078 247.502261 
L 744.710265 228.497584 
L 747.691452 147.69291 
L 750.672639 304.82594 
L 753.653826 212.077244 
L 756.635013 299.305064 
L 759.616199 258.897159 
L 762.597386 202.865152 
L 765.578573 242.701028 
L 768.55976 286.840503 
L 771.540947 275.11641 
L 774.522134 225.033622 
L 777.503321 278.936084 
L 780.484508 245.344263 
L 783.465694 253.143114 
L 786.446881 280.389247 
L 789.428068 177.991074 
L 792.409255 235.22783 
L 795.390442 335.00214 
L 798.371629 254.00577 
L 801.352816 286.422874 
L 804.334003 231.106426 
L 807.315189 292.88251 
L 810.296376 268.393048 
L 813.277563 245.952992 
L 816.25875 233.012422 
L 819.239937 309.987709 
L 822.221124 278.093472 
L 825.202311 283.41415 
L 828.183497 290.028554 
L 831.164684 200.184295 
L 834.145871 250.418311 
L 837.127058 311.864418 
L 840.108245 230.574697 
L 843.089432 185.315371 
L 846.070619 225.03536 
L 849.051806 318.877049 
L 852.032992 279.540263 
L 855.014179 213.525922 
L 857.995366 285.604116 
L 860.976553 241.603649 
L 863.95774 227.932996 
L 866.938927 289.542643 
L 869.920114 255.74395 
L 872.901301 372.042505 
L 875.882487 287.968704 
L 878.863674 257.396042 
L 881.844861 292.270854 
L 884.826048 183.285349 
L 887.807235 294.65385 
L 890.788422 255.593077 
L 893.769609 231.996819 
L 896.750795 180.872327 
L 899.731982 285.009131 
L 902.713169 185.924343 
L 905.694356 225.945392 
L 908.675543 259.915376 
L 911.65673 203.476682 
L 914.637917 210.284362 
L 917.619104 236.925133 
L 920.60029 209.007002 
L 923.581477 222.7768 
L 926.562664 201.114234 
L 929.543851 177.564704 
L 932.525038 140.058773 
L 935.506225 241.54665 
L 938.487412 113.212972 
L 941.468598 261.443343 
L 944.449785 191.334388 
L 947.430972 160.54406 
L 950.412159 168.603668 
L 950.412159 168.603668 
" clip-path="url(#p131022f813)" style="fill: none; stroke: #0000ff; stroke-opacity: 0.9; stroke-width: 2.5; stroke-linecap: square"/>
   </g>
   <g id="line2d_38">
    <path d="M 91.830341 371.273986 
L 94.811528 376.443319 
L 97.792715 354.290237 
L 100.773902 321.990373 
L 103.755088 331.644859 
L 106.736275 346.230315 
L 109.717462 313.799892 
L 112.698649 282.88829 
L 115.679836 347.068259 
L 118.661023 288.021436 
L 121.64221 328.875294 
L 124.623396 378.830481 
L 127.604583 339.814061 
L 130.58577 369.366599 
L 133.566957 364.461161 
L 136.548144 341.421727 
L 139.529331 350.370969 
L 142.510518 256.361911 
L 145.491705 366.944002 
L 148.472891 341.819544 
L 151.454078 259.828634 
L 154.435265 320.802888 
L 157.416452 259.909895 
L 160.397639 323.044406 
L 163.378826 288.775321 
L 166.360013 244.671522 
L 169.341199 336.259063 
L 172.322386 253.909431 
L 175.303573 324.512799 
L 178.28476 288.517918 
L 181.265947 315.105872 
L 184.247134 214.545638 
L 187.228321 264.509613 
L 190.209508 353.481852 
L 193.190694 177.170252 
L 196.171881 364.590291 
L 199.153068 318.40585 
L 202.134255 312.174416 
L 205.115442 301.579686 
L 208.096629 250.736666 
L 211.077816 230.258408 
L 217.040189 317.185004 
L 220.021376 288.863593 
L 223.002563 360.088571 
L 225.98375 272.318063 
L 228.964937 303.868266 
L 231.946124 272.735119 
L 234.927311 281.562533 
L 237.908497 333.817864 
L 240.889684 292.691477 
L 243.870871 329.330197 
L 246.852058 302.519332 
L 249.833245 255.805976 
L 252.814432 268.758616 
L 255.795619 272.459335 
L 261.757992 356.776512 
L 264.739179 333.074839 
L 267.720366 285.769418 
L 270.701553 323.069243 
L 273.68274 294.873434 
L 276.663927 288.544566 
L 279.645114 316.119311 
L 282.626301 280.402115 
L 285.607487 257.028937 
L 288.588674 347.647758 
L 291.569861 274.016412 
L 294.551048 309.633083 
L 297.532235 326.814877 
L 300.513422 333.24597 
L 303.494609 242.778689 
L 306.475795 266.439536 
L 309.456982 268.690948 
L 312.438169 407.436709 
L 315.419356 271.3367 
L 318.400543 340.223792 
L 321.38173 333.854071 
L 324.362917 329.009618 
L 327.344104 405.001855 
L 330.32529 372.9275 
L 333.306477 324.459709 
L 336.287664 267.525878 
L 339.268851 308.7611 
L 342.250038 339.097871 
L 345.231225 286.054881 
L 348.212412 341.067752 
L 351.193598 304.858587 
L 354.174785 363.168044 
L 357.155972 253.04678 
L 360.137159 378.589742 
L 363.118346 348.619983 
L 366.099533 403.008824 
L 369.08072 445.488355 
L 372.061907 390.834319 
L 375.043093 439.902676 
L 378.02428 342.376856 
L 381.005467 337.386606 
L 383.986654 291.746843 
L 386.967841 334.675968 
L 389.949028 434.237555 
L 392.930215 409.228031 
L 395.911402 355.993426 
L 398.892588 438.800451 
L 401.873775 300.531334 
L 404.854962 302.987525 
L 407.836149 307.483751 
L 410.817336 415.652103 
L 413.798523 300.688868 
L 416.77971 365.589576 
L 419.760896 384.109362 
L 422.742083 415.757751 
L 425.72327 375.375591 
L 428.704457 263.122585 
L 431.685644 358.834278 
L 434.666831 357.1511 
L 437.648018 329.178218 
L 440.629205 430.968129 
L 443.610391 309.914426 
L 446.591578 313.045332 
L 449.572765 295.350201 
L 452.553952 349.22965 
L 455.535139 327.951815 
L 458.516326 444.612597 
L 461.497513 266.46916 
L 464.478699 238.866692 
L 467.459886 393.580193 
L 470.441073 291.797471 
L 473.42226 316.514283 
L 476.403447 297.541651 
L 479.384634 373.914333 
L 482.365821 238.627814 
L 485.347008 288.711068 
L 488.328194 301.462168 
L 491.309381 305.781203 
L 494.290568 222.903008 
L 497.271755 280.049598 
L 500.252942 344.426563 
L 503.234129 239.154701 
L 506.215316 298.215071 
L 509.196503 343.061303 
L 512.177689 278.815701 
L 515.158876 414.673214 
L 518.140063 280.631586 
L 521.12125 238.683447 
L 524.102437 187.500336 
L 527.083624 310.883377 
L 530.064811 254.242863 
L 533.045997 291.772527 
L 536.027184 308.559512 
L 539.008371 247.220889 
L 541.989558 224.474297 
L 544.970745 274.477723 
L 547.951932 311.317984 
L 550.933119 234.15652 
L 553.914306 312.568737 
L 556.895492 142.207563 
L 559.876679 201.890919 
L 562.857866 308.18488 
L 565.839053 221.358145 
L 568.82024 298.912593 
L 571.801427 194.722814 
L 574.782614 141.412555 
L 577.763801 282.759048 
L 580.744987 160.092461 
L 583.726174 215.719127 
L 586.707361 207.827739 
L 589.688548 140.928236 
L 592.669735 252.034909 
L 595.650922 251.4742 
L 598.632109 278.052641 
L 601.613295 158.818853 
L 604.594482 199.813435 
L 607.575669 209.459306 
L 610.556856 177.293781 
L 613.538043 167.429253 
L 616.51923 200.404162 
L 619.500417 115.605558 
L 622.481604 173.203606 
L 625.46279 108.400118 
L 628.443977 187.038812 
L 631.425164 230.545408 
L 634.406351 311.560525 
L 637.387538 225.036958 
L 640.368725 146.401754 
L 643.349912 101.416246 
L 646.331098 179.077079 
L 649.312285 169.484257 
L 652.293472 208.045927 
L 655.274659 132.725568 
L 658.255846 164.639618 
L 661.237033 162.127016 
L 664.21822 216.641218 
L 667.199407 295.171132 
L 670.180593 177.709191 
L 673.16178 205.62203 
L 676.142967 277.912633 
L 679.124154 212.408246 
L 682.105341 232.957829 
L 685.086528 178.346594 
L 688.067715 153.290219 
L 691.048902 179.503166 
L 694.030088 107.664896 
L 697.011275 161.247518 
L 699.992462 287.169966 
L 702.973649 186.045573 
L 705.954836 169.642578 
L 708.936023 228.711829 
L 711.91721 199.801213 
L 714.898396 102.766205 
L 717.879583 244.859454 
L 720.86077 142.096948 
L 723.841957 115.152547 
L 726.823144 248.445218 
L 729.804331 215.1584 
L 732.785518 221.397787 
L 735.766705 274.339627 
L 738.747891 260.329022 
L 741.729078 281.452748 
L 744.710265 229.333458 
L 747.691452 180.444369 
L 750.672639 297.607898 
L 753.653826 216.497059 
L 756.635013 310.573067 
L 759.616199 294.428885 
L 762.597386 226.392592 
L 765.578573 217.884962 
L 768.55976 271.259171 
L 771.540947 313.188095 
L 774.522134 224.025603 
L 777.503321 254.265325 
L 780.484508 308.522836 
L 783.465694 236.021547 
L 786.446881 307.032227 
L 789.428068 159.881036 
L 792.409255 265.522818 
L 795.390442 403.097098 
L 798.371629 315.665161 
L 801.352816 287.274595 
L 804.334003 224.277927 
L 807.315189 328.296403 
L 810.296376 247.81555 
L 813.277563 308.845415 
L 816.25875 238.007124 
L 819.239937 356.531574 
L 822.221124 304.344975 
L 825.202311 284.290776 
L 828.183497 323.849219 
L 831.164684 216.736321 
L 834.145871 216.497153 
L 837.127058 335.396232 
L 840.108245 202.844552 
L 843.089432 228.908561 
L 846.070619 208.405734 
L 849.051806 269.159952 
L 852.032992 371.831692 
L 855.014179 245.041548 
L 857.995366 267.25916 
L 860.976553 251.568763 
L 863.95774 217.060999 
L 866.938927 314.057659 
L 869.920114 255.19835 
L 872.901301 380.288652 
L 875.882487 248.187183 
L 878.863674 250.759938 
L 881.844861 282.616123 
L 884.826048 200.828855 
L 887.807235 314.945533 
L 890.788422 273.887095 
L 893.769609 220.279049 
L 896.750795 198.746341 
L 899.731982 277.090047 
L 902.713169 113.205797 
L 905.694356 196.929416 
L 908.675543 274.343305 
L 911.65673 162.481936 
L 914.637917 227.689911 
L 917.619104 313.484341 
L 920.60029 248.186644 
L 923.581477 293.263592 
L 926.562664 216.467181 
L 929.543851 179.49301 
L 932.525038 81.81841 
L 935.506225 232.279321 
L 938.487412 123.760719 
L 941.468598 233.941333 
L 944.449785 274.17207 
L 947.430972 154.590426 
L 950.412159 143.22606 
L 950.412159 143.22606 
" clip-path="url(#p131022f813)" style="fill: none; stroke: #ff0000; stroke-opacity: 0.9; stroke-width: 2.5; stroke-linecap: square"/>
   </g>
   <g id="patch_3">
    <path d="M 48.90125 501.949265 
L 48.90125 25.3575 
" style="fill: none; stroke: #000000; stroke-width: 0.8; stroke-linejoin: miter; stroke-linecap: square"/>
   </g>
   <g id="patch_4">
    <path d="M 993.34125 501.949265 
L 993.34125 25.3575 
" style="fill: none; stroke: #000000; stroke-width: 0.8; stroke-linejoin: miter; stroke-linecap: square"/>
   </g>
   <g id="patch_5">
    <path d="M 48.90125 501.949265 
L 993.34125 501.949265 
" style="fill: none; stroke: #000000; stroke-width: 0.8; stroke-linejoin: miter; stroke-linecap: square"/>
   </g>
   <g id="patch_6">
    <path d="M 48.90125 25.3575 
L 993.34125 25.3575 
" style="fill: none; stroke: #000000; stroke-width: 0.8; stroke-linejoin: miter; stroke-linecap: square"/>
   </g>
   <g id="text_21">
    <g id="patch_7">
     <path d="M 67.79005 75.67046 
L 167.1338 75.67046 
Q 172.6338 75.67046 172.6338 70.17046 
L 172.6338 34.889335 
Q 172.6338 29.389335 167.1338 29.389335 
L 67.79005 29.389335 
Q 62.29005 29.389335 62.29005 34.889335 
L 62.29005 70.17046 
Q 62.29005 75.67046 67.79005 75.67046 
z
" style="fill: #ffffff; opacity: 0.8; stroke: #000000; stroke-linejoin: miter"/>
    </g>
    <!-- RMSE: $2.93 -->
    <g transform="translate(67.79005 43.247617) scale(0.11 -0.11)">
     <defs>
      <path id="DejaVuSans-52" d="M 2841 2188 
Q 3044 2119 3236 1894 
Q 3428 1669 3622 1275 
L 4263 0 
L 3584 0 
L 2988 1197 
Q 2756 1666 2539 1819 
Q 2322 1972 1947 1972 
L 1259 1972 
L 1259 0 
L 628 0 
L 628 4666 
L 2053 4666 
Q 2853 4666 3247 4331 
Q 3641 3997 3641 3322 
Q 3641 2881 3436 2590 
Q 3231 2300 2841 2188 
z
M 1259 4147 
L 1259 2491 
L 2053 2491 
Q 2509 2491 2742 2702 
Q 2975 2913 2975 3322 
Q 2975 3731 2742 3939 
Q 2509 4147 2053 4147 
L 1259 4147 
z
" transform="scale(0.015625)"/>
      <path id="DejaVuSans-4d" d="M 628 4666 
L 1569 4666 
L 2759 1491 
L 3956 4666 
L 4897 4666 
L 4897 0 
L 4281 0 
L 4281 4097 
L 3078 897 
L 2444 897 
L 1241 4097 
L 1241 0 
L 628 0 
L 628 4666 
z
" transform="scale(0.015625)"/>
      <path id="DejaVuSans-45" d="M 628 4666 
L 3578 4666 
L 3578 4134 
L 1259 4134 
L 1259 2753 
L 3481 2753 
L 3481 2222 
L 1259 2222 
L 1259 531 
L 3634 531 
L 3634 0 
L 628 0 
L 628 4666 
z
" transform="scale(0.015625)"/>
      <path id="DejaVuSans-3a" d="M 750 794 
L 1409 794 
L 1409 0 
L 750 0 
L 750 794 
z
M 750 3309 
L 1409 3309 
L 1409 2516 
L 750 2516 
L 750 3309 
z
" transform="scale(0.015625)"/>
      <path id="DejaVuSans-2e" d="M 684 794 
L 1344 794 
L 1344 0 
L 684 0 
L 684 794 
z
" transform="scale(0.015625)"/>
     </defs>
     <use xlink:href="#DejaVuSans-52"/>
     <use xlink:href="#DejaVuSans-4d" transform="translate(69.482422 0)"/>
     <use xlink:href="#DejaVuSans-53" transform="translate(155.761719 0)"/>
     <use xlink:href="#DejaVuSans-45" transform="translate(219.238281 0)"/>
     <use xlink:href="#DejaVuSans-3a" transform="translate(282.421875 0)"/>
     <use xlink:href="#DejaVuSans-20" transform="translate(316.113281 0)"/>
     <use xlink:href="#DejaVuSans-24" transform="translate(347.900391 0)"/>
     <use xlink:href="#DejaVuSans-32" transform="translate(411.523438 0)"/>
     <use xlink:href="#DejaVuSans-2e" transform="translate(475.146484 0)"/>
     <use xlink:href="#DejaVuSans-39" transform="translate(506.933594 0)"/>
     <use xlink:href="#DejaVuSans-33" transform="translate(570.556641 0)"/>
    </g>
    <!-- MAE: $2.27 -->
    <g transform="translate(67.79005 55.56521) scale(0.11 -0.11)">
     <defs>
      <path id="DejaVuSans-41" d="M 2188 4044 
L 1331 1722 
L 3047 1722 
L 2188 4044 
z
M 1831 4666 
L 2547 4666 
L 4325 0 
L 3669 0 
L 3244 1197 
L 1141 1197 
L 716 0 
L 50 0 
L 1831 4666 
z
" transform="scale(0.015625)"/>
     </defs>
     <use xlink:href="#DejaVuSans-4d"/>
     <use xlink:href="#DejaVuSans-41" transform="translate(86.279297 0)"/>
     <use xlink:href="#DejaVuSans-45" transform="translate(154.6875 0)"/>
     <use xlink:href="#DejaVuSans-3a" transform="translate(217.871094 0)"/>
     <use xlink:href="#DejaVuSans-20" transform="translate(251.5625 0)"/>
     <use xlink:href="#DejaVuSans-24" transform="translate(283.349609 0)"/>
     <use xlink:href="#DejaVuSans-32" transform="translate(346.972656 0)"/>
     <use xlink:href="#DejaVuSans-2e" transform="translate(410.595703 0)"/>
     <use xlink:href="#DejaVuSans-32" transform="translate(442.382812 0)"/>
     <use xlink:href="#DejaVuSans-37" transform="translate(506.005859 0)"/>
    </g>
    <!-- Correlation: 0.881 -->
    <g transform="translate(67.79005 67.882804) scale(0.11 -0.11)">
     <defs>
      <path id="DejaVuSans-43" d="M 4122 4306 
L 4122 3641 
Q 3803 3938 3442 4084 
Q 3081 4231 2675 4231 
Q 1875 4231 1450 3742 
Q 1025 3253 1025 2328 
Q 1025 1406 1450 917 
Q 1875 428 2675 428 
Q 3081 428 3442 575 
Q 3803 722 4122 1019 
L 4122 359 
Q 3791 134 3420 21 
Q 3050 -91 2638 -91 
Q 1578 -91 968 557 
Q 359 1206 359 2328 
Q 359 3453 968 4101 
Q 1578 4750 2638 4750 
Q 3056 4750 3426 4639 
Q 3797 4528 4122 4306 
z
" transform="scale(0.015625)"/>
      <path id="DejaVuSans-6c" d="M 603 4863 
L 1178 4863 
L 1178 0 
L 603 0 
L 603 4863 
z
" transform="scale(0.015625)"/>
      <path id="DejaVuSans-6e" d="M 3513 2113 
L 3513 0 
L 2938 0 
L 2938 2094 
Q 2938 2591 2744 2837 
Q 2550 3084 2163 3084 
Q 1697 3084 1428 2787 
Q 1159 2491 1159 1978 
L 1159 0 
L 581 0 
L 581 3500 
L 1159 3500 
L 1159 2956 
Q 1366 3272 1645 3428 
Q 1925 3584 2291 3584 
Q 2894 3584 3203 3211 
Q 3513 2838 3513 2113 
z
" transform="scale(0.015625)"/>
     </defs>
     <use xlink:href="#DejaVuSans-43"/>
     <use xlink:href="#DejaVuSans-6f" transform="translate(69.824219 0)"/>
     <use xlink:href="#DejaVuSans-72" transform="translate(131.005859 0)"/>
     <use xlink:href="#DejaVuSans-72" transform="translate(170.369141 0)"/>
     <use xlink:href="#DejaVuSans-65" transform="translate(209.232422 0)"/>
     <use xlink:href="#DejaVuSans-6c" transform="translate(270.755859 0)"/>
     <use xlink:href="#DejaVuSans-61" transform="translate(298.539062 0)"/>
     <use xlink:href="#DejaVuSans-74" transform="translate(359.818359 0)"/>
     <use xlink:href="#DejaVuSans-69" transform="translate(399.027344 0)"/>
     <use xlink:href="#DejaVuSans-6f" transform="translate(426.810547 0)"/>
     <use xlink:href="#DejaVuSans-6e" transform="translate(487.992188 0)"/>
     <use xlink:href="#DejaVuSans-3a" transform="translate(551.371094 0)"/>
     <use xlink:href="#DejaVuSans-20" transform="translate(585.0625 0)"/>
     <use xlink:href="#DejaVuSans-30" transform="translate(616.849609 0)"/>
     <use xlink:href="#DejaVuSans-2e" transform="translate(680.472656 0)"/>
     <use xlink:href="#DejaVuSans-38" transform="translate(712.259766 0)"/>
     <use xlink:href="#DejaVuSans-38" transform="translate(775.882812 0)"/>
     <use xlink:href="#DejaVuSans-31" transform="translate(839.505859 0)"/>
    </g>
   </g>
   <g id="text_22">
    <!-- AAPL Stock Price Prediction: LSTM Model Performance -->
    <g transform="translate(274.41625 19.3575) scale(0.16 -0.16)">
     <defs>
      <path id="DejaVuSans-Bold-41" d="M 3419 850 
L 1538 850 
L 1241 0 
L 31 0 
L 1759 4666 
L 3194 4666 
L 4922 0 
L 3713 0 
L 3419 850 
z
M 1838 1716 
L 3116 1716 
L 2478 3572 
L 1838 1716 
z
" transform="scale(0.015625)"/>
      <path id="DejaVuSans-Bold-50" d="M 588 4666 
L 2584 4666 
Q 3475 4666 3951 4270 
Q 4428 3875 4428 3144 
Q 4428 2409 3951 2014 
Q 3475 1619 2584 1619 
L 1791 1619 
L 1791 0 
L 588 0 
L 588 4666 
z
M 1791 3794 
L 1791 2491 
L 2456 2491 
Q 2806 2491 2997 2661 
Q 3188 2831 3188 3144 
Q 3188 3456 2997 3625 
Q 2806 3794 2456 3794 
L 1791 3794 
z
" transform="scale(0.015625)"/>
      <path id="DejaVuSans-Bold-4c" d="M 588 4666 
L 1791 4666 
L 1791 909 
L 3903 909 
L 3903 0 
L 588 0 
L 588 4666 
z
" transform="scale(0.015625)"/>
      <path id="DejaVuSans-Bold-20" transform="scale(0.015625)"/>
      <path id="DejaVuSans-Bold-53" d="M 3834 4519 
L 3834 3531 
Q 3450 3703 3084 3790 
Q 2719 3878 2394 3878 
Q 1963 3878 1756 3759 
Q 1550 3641 1550 3391 
Q 1550 3203 1689 3098 
Q 1828 2994 2194 2919 
L 2706 2816 
Q 3484 2659 3812 2340 
Q 4141 2022 4141 1434 
Q 4141 663 3683 286 
Q 3225 -91 2284 -91 
Q 1841 -91 1394 -6 
Q 947 78 500 244 
L 500 1259 
Q 947 1022 1364 901 
Q 1781 781 2169 781 
Q 2563 781 2772 912 
Q 2981 1044 2981 1288 
Q 2981 1506 2839 1625 
Q 2697 1744 2272 1838 
L 1806 1941 
Q 1106 2091 782 2419 
Q 459 2747 459 3303 
Q 459 4000 909 4375 
Q 1359 4750 2203 4750 
Q 2588 4750 2994 4692 
Q 3400 4634 3834 4519 
z
" transform="scale(0.015625)"/>
      <path id="DejaVuSans-Bold-74" d="M 1759 4494 
L 1759 3500 
L 2913 3500 
L 2913 2700 
L 1759 2700 
L 1759 1216 
Q 1759 972 1856 886 
Q 1953 800 2241 800 
L 2816 800 
L 2816 0 
L 1856 0 
Q 1194 0 917 276 
Q 641 553 641 1216 
L 641 2700 
L 84 2700 
L 84 3500 
L 641 3500 
L 641 4494 
L 1759 4494 
z
" transform="scale(0.015625)"/>
      <path id="DejaVuSans-Bold-6f" d="M 2203 2784 
Q 1831 2784 1636 2517 
Q 1441 2250 1441 1747 
Q 1441 1244 1636 976 
Q 1831 709 2203 709 
Q 2569 709 2762 976 
Q 2956 1244 2956 1747 
Q 2956 2250 2762 2517 
Q 2569 2784 2203 2784 
z
M 2203 3584 
Q 3106 3584 3614 3096 
Q 4122 2609 4122 1747 
Q 4122 884 3614 396 
Q 3106 -91 2203 -91 
Q 1297 -91 786 396 
Q 275 884 275 1747 
Q 275 2609 786 3096 
Q 1297 3584 2203 3584 
z
" transform="scale(0.015625)"/>
      <path id="DejaVuSans-Bold-63" d="M 3366 3391 
L 3366 2478 
Q 3138 2634 2908 2709 
Q 2678 2784 2431 2784 
Q 1963 2784 1702 2511 
Q 1441 2238 1441 1747 
Q 1441 1256 1702 982 
Q 1963 709 2431 709 
Q 2694 709 2930 787 
Q 3166 866 3366 1019 
L 3366 103 
Q 3103 6 2833 -42 
Q 2563 -91 2291 -91 
Q 1344 -91 809 395 
Q 275 881 275 1747 
Q 275 2613 809 3098 
Q 1344 3584 2291 3584 
Q 2566 3584 2833 3536 
Q 3100 3488 3366 3391 
z
" transform="scale(0.015625)"/>
      <path id="DejaVuSans-Bold-6b" d="M 538 4863 
L 1656 4863 
L 1656 2216 
L 2944 3500 
L 4244 3500 
L 2534 1894 
L 4378 0 
L 3022 0 
L 1656 1459 
L 1656 0 
L 538 0 
L 538 4863 
z
" transform="scale(0.015625)"/>
      <path id="DejaVuSans-Bold-72" d="M 3138 2547 
Q 2991 2616 2845 2648 
Q 2700 2681 2553 2681 
Q 2122 2681 1889 2404 
Q 1656 2128 1656 1613 
L 1656 0 
L 538 0 
L 538 3500 
L 1656 3500 
L 1656 2925 
Q 1872 3269 2151 3426 
Q 2431 3584 2822 3584 
Q 2878 3584 2943 3579 
Q 3009 3575 3134 3559 
L 3138 2547 
z
" transform="scale(0.015625)"/>
      <path id="DejaVuSans-Bold-69" d="M 538 3500 
L 1656 3500 
L 1656 0 
L 538 0 
L 538 3500 
z
M 538 4863 
L 1656 4863 
L 1656 3950 
L 538 3950 
L 538 4863 
z
" transform="scale(0.015625)"/>
      <path id="DejaVuSans-Bold-65" d="M 4031 1759 
L 4031 1441 
L 1416 1441 
Q 1456 1047 1700 850 
Q 1944 653 2381 653 
Q 2734 653 3104 758 
Q 3475 863 3866 1075 
L 3866 213 
Q 3469 63 3072 -14 
Q 2675 -91 2278 -91 
Q 1328 -91 801 392 
Q 275 875 275 1747 
Q 275 2603 792 3093 
Q 1309 3584 2216 3584 
Q 3041 3584 3536 3087 
Q 4031 2591 4031 1759 
z
M 2881 2131 
Q 2881 2450 2695 2645 
Q 2509 2841 2209 2841 
Q 1884 2841 1681 2658 
Q 1478 2475 1428 2131 
L 2881 2131 
z
" transform="scale(0.015625)"/>
      <path id="DejaVuSans-Bold-64" d="M 2919 2988 
L 2919 4863 
L 4044 4863 
L 4044 0 
L 2919 0 
L 2919 506 
Q 2688 197 2409 53 
Q 2131 -91 1766 -91 
Q 1119 -91 703 423 
Q 288 938 288 1747 
Q 288 2556 703 3070 
Q 1119 3584 1766 3584 
Q 2128 3584 2408 3439 
Q 2688 3294 2919 2988 
z
M 2181 722 
Q 2541 722 2730 984 
Q 2919 1247 2919 1747 
Q 2919 2247 2730 2509 
Q 2541 2772 2181 2772 
Q 1825 2772 1636 2509 
Q 1447 2247 1447 1747 
Q 1447 1247 1636 984 
Q 1825 722 2181 722 
z
" transform="scale(0.015625)"/>
      <path id="DejaVuSans-Bold-6e" d="M 4056 2131 
L 4056 0 
L 2931 0 
L 2931 347 
L 2931 1631 
Q 2931 2084 2911 2256 
Q 2891 2428 2841 2509 
Q 2775 2619 2662 2680 
Q 2550 2741 2406 2741 
Q 2056 2741 1856 2470 
Q 1656 2200 1656 1722 
L 1656 0 
L 538 0 
L 538 3500 
L 1656 3500 
L 1656 2988 
Q 1909 3294 2193 3439 
Q 2478 3584 2822 3584 
Q 3428 3584 3742 3212 
Q 4056 2841 4056 2131 
z
" transform="scale(0.015625)"/>
      <path id="DejaVuSans-Bold-3a" d="M 716 3500 
L 1844 3500 
L 1844 2291 
L 716 2291 
L 716 3500 
z
M 716 1209 
L 1844 1209 
L 1844 0 
L 716 0 
L 716 1209 
z
" transform="scale(0.015625)"/>
      <path id="DejaVuSans-Bold-54" d="M 31 4666 
L 4331 4666 
L 4331 3756 
L 2784 3756 
L 2784 0 
L 1581 0 
L 1581 3756 
L 31 3756 
L 31 4666 
z
" transform="scale(0.015625)"/>
      <path id="DejaVuSans-Bold-4d" d="M 588 4666 
L 2119 4666 
L 3181 2169 
L 4250 4666 
L 5778 4666 
L 5778 0 
L 4641 0 
L 4641 3413 
L 3566 897 
L 2803 897 
L 1728 3413 
L 1728 0 
L 588 0 
L 588 4666 
z
" transform="scale(0.015625)"/>
      <path id="DejaVuSans-Bold-6c" d="M 538 4863 
L 1656 4863 
L 1656 0 
L 538 0 
L 538 4863 
z
" transform="scale(0.015625)"/>
      <path id="DejaVuSans-Bold-66" d="M 2841 4863 
L 2841 4128 
L 2222 4128 
Q 1984 4128 1890 4042 
Q 1797 3956 1797 3744 
L 1797 3500 
L 2753 3500 
L 2753 2700 
L 1797 2700 
L 1797 0 
L 678 0 
L 678 2700 
L 122 2700 
L 122 3500 
L 678 3500 
L 678 3744 
Q 678 4316 997 4589 
Q 1316 4863 1984 4863 
L 2841 4863 
z
" transform="scale(0.015625)"/>
      <path id="DejaVuSans-Bold-6d" d="M 3781 2919 
Q 3994 3244 4286 3414 
Q 4578 3584 4928 3584 
Q 5531 3584 5847 3212 
Q 6163 2841 6163 2131 
L 6163 0 
L 5038 0 
L 5038 1825 
Q 5041 1866 5042 1909 
Q 5044 1953 5044 2034 
Q 5044 2406 4934 2573 
Q 4825 2741 4581 2741 
Q 4263 2741 4089 2478 
Q 3916 2216 3909 1719 
L 3909 0 
L 2784 0 
L 2784 1825 
Q 2784 2406 2684 2573 
Q 2584 2741 2328 2741 
Q 2006 2741 1831 2477 
Q 1656 2213 1656 1722 
L 1656 0 
L 531 0 
L 531 3500 
L 1656 3500 
L 1656 2988 
Q 1863 3284 2130 3434 
Q 2397 3584 2719 3584 
Q 3081 3584 3359 3409 
Q 3638 3234 3781 2919 
z
" transform="scale(0.015625)"/>
      <path id="DejaVuSans-Bold-61" d="M 2106 1575 
Q 1756 1575 1579 1456 
Q 1403 1338 1403 1106 
Q 1403 894 1545 773 
Q 1688 653 1941 653 
Q 2256 653 2472 879 
Q 2688 1106 2688 1447 
L 2688 1575 
L 2106 1575 
z
M 3816 1997 
L 3816 0 
L 2688 0 
L 2688 519 
Q 2463 200 2181 54 
Q 1900 -91 1497 -91 
Q 953 -91 614 226 
Q 275 544 275 1050 
Q 275 1666 698 1953 
Q 1122 2241 2028 2241 
L 2688 2241 
L 2688 2328 
Q 2688 2594 2478 2717 
Q 2269 2841 1825 2841 
Q 1466 2841 1156 2769 
Q 847 2697 581 2553 
L 581 3406 
Q 941 3494 1303 3539 
Q 1666 3584 2028 3584 
Q 2975 3584 3395 3211 
Q 3816 2838 3816 1997 
z
" transform="scale(0.015625)"/>
     </defs>
     <use xlink:href="#DejaVuSans-Bold-41"/>
     <use xlink:href="#DejaVuSans-Bold-41" transform="translate(77.392578 0)"/>
     <use xlink:href="#DejaVuSans-Bold-50" transform="translate(154.785156 0)"/>
     <use xlink:href="#DejaVuSans-Bold-4c" transform="translate(228.076172 0)"/>
     <use xlink:href="#DejaVuSans-Bold-20" transform="translate(291.796875 0)"/>
     <use xlink:href="#DejaVuSans-Bold-53" transform="translate(326.611328 0)"/>
     <use xlink:href="#DejaVuSans-Bold-74" transform="translate(398.632812 0)"/>
     <use xlink:href="#DejaVuSans-Bold-6f" transform="translate(446.435547 0)"/>
     <use xlink:href="#DejaVuSans-Bold-63" transform="translate(515.136719 0)"/>
     <use xlink:href="#DejaVuSans-Bold-6b" transform="translate(574.414062 0)"/>
     <use xlink:href="#DejaVuSans-Bold-20" transform="translate(640.917969 0)"/>
     <use xlink:href="#DejaVuSans-Bold-50" transform="translate(675.732422 0)"/>
     <use xlink:href="#DejaVuSans-Bold-72" transform="translate(749.023438 0)"/>
     <use xlink:href="#DejaVuSans-Bold-69" transform="translate(798.339844 0)"/>
     <use xlink:href="#DejaVuSans-Bold-63" transform="translate(832.617188 0)"/>
     <use xlink:href="#DejaVuSans-Bold-65" transform="translate(891.894531 0)"/>
     <use xlink:href="#DejaVuSans-Bold-20" transform="translate(959.716797 0)"/>
     <use xlink:href="#DejaVuSans-Bold-50" transform="translate(994.53125 0)"/>
     <use xlink:href="#DejaVuSans-Bold-72" transform="translate(1067.822266 0)"/>
     <use xlink:href="#DejaVuSans-Bold-65" transform="translate(1117.138672 0)"/>
     <use xlink:href="#DejaVuSans-Bold-64" transform="translate(1184.960938 0)"/>
     <use xlink:href="#DejaVuSans-Bold-69" transform="translate(1256.542969 0)"/>
     <use xlink:href="#DejaVuSans-Bold-63" transform="translate(1290.820312 0)"/>
     <use xlink:href="#DejaVuSans-Bold-74" transform="translate(1350.097656 0)"/>
     <use xlink:href="#DejaVuSans-Bold-69" transform="translate(1397.900391 0)"/>
     <use xlink:href="#DejaVuSans-Bold-6f" transform="translate(1432.177734 0)"/>
     <use xlink:href="#DejaVuSans-Bold-6e" transform="translate(1500.878906 0)"/>
     <use xlink:href="#DejaVuSans-Bold-3a" transform="translate(1572.070312 0)"/>
     <use xlink:href="#DejaVuSans-Bold-20" transform="translate(1612.060547 0)"/>
     <use xlink:href="#DejaVuSans-Bold-4c" transform="translate(1646.875 0)"/>
     <use xlink:href="#DejaVuSans-Bold-53" transform="translate(1710.595703 0)"/>
     <use xlink:href="#DejaVuSans-Bold-54" transform="translate(1782.617188 0)"/>
     <use xlink:href="#DejaVuSans-Bold-4d" transform="translate(1850.830078 0)"/>
     <use xlink:href="#DejaVuSans-Bold-20" transform="translate(1950.341797 0)"/>
     <use xlink:href="#DejaVuSans-Bold-4d" transform="translate(1985.15625 0)"/>
     <use xlink:href="#DejaVuSans-Bold-6f" transform="translate(2084.667969 0)"/>
     <use xlink:href="#DejaVuSans-Bold-64" transform="translate(2153.369141 0)"/>
     <use xlink:href="#DejaVuSans-Bold-65" transform="translate(2224.951172 0)"/>
     <use xlink:href="#DejaVuSans-Bold-6c" transform="translate(2292.773438 0)"/>
     <use xlink:href="#DejaVuSans-Bold-20" transform="translate(2327.050781 0)"/>
     <use xlink:href="#DejaVuSans-Bold-50" transform="translate(2361.865234 0)"/>
     <use xlink:href="#DejaVuSans-Bold-65" transform="translate(2435.15625 0)"/>
     <use xlink:href="#DejaVuSans-Bold-72" transform="translate(2502.978516 0)"/>
     <use xlink:href="#DejaVuSans-Bold-66" transform="translate(2552.294922 0)"/>
     <use xlink:href="#DejaVuSans-Bold-6f" transform="translate(2595.800781 0)"/>
     <use xlink:href="#DejaVuSans-Bold-72" transform="translate(2664.501953 0)"/>
     <use xlink:href="#DejaVuSans-Bold-6d" transform="translate(2713.818359 0)"/>
     <use xlink:href="#DejaVuSans-Bold-61" transform="translate(2818.017578 0)"/>
     <use xlink:href="#DejaVuSans-Bold-6e" transform="translate(2885.498047 0)"/>
     <use xlink:href="#DejaVuSans-Bold-63" transform="translate(2956.689453 0)"/>
     <use xlink:href="#DejaVuSans-Bold-65" transform="translate(3015.966797 0)"/>
    </g>
   </g>
   <g id="legend_1">
    <g id="patch_8">
     <path d="M 56.60125 496.449265 
L 225.958281 496.449265 
Q 228.158281 496.449265 228.158281 494.249265 
L 228.158281 446.911452 
Q 228.158281 444.711452 225.958281 444.711452 
L 56.60125 444.711452 
Q 54.40125 444.711452 54.40125 446.911452 
L 54.40125 494.249265 
Q 54.40125 496.449265 56.60125 496.449265 
z
" style="fill: #ffffff; opacity: 0.8; stroke: #cccccc; stroke-linejoin: miter"/>
    </g>
    <g id="line2d_39">
     <path d="M 58.80125 453.619733 
L 69.80125 453.619733 
L 80.80125 453.619733 
" style="fill: none; stroke: #0000ff; stroke-opacity: 0.9; stroke-width: 2.5; stroke-linecap: square"/>
    </g>
    <g id="text_23">
     <!-- Actual AAPL Prices -->
     <g transform="translate(89.60125 457.469733) scale(0.11 -0.11)">
      <defs>
       <path id="DejaVuSans-75" d="M 544 1381 
L 544 3500 
L 1119 3500 
L 1119 1403 
Q 1119 906 1312 657 
Q 1506 409 1894 409 
Q 2359 409 2629 706 
Q 2900 1003 2900 1516 
L 2900 3500 
L 3475 3500 
L 3475 0 
L 2900 0 
L 2900 538 
Q 2691 219 2414 64 
Q 2138 -91 1772 -91 
Q 1169 -91 856 284 
Q 544 659 544 1381 
z
M 1991 3584 
L 1991 3584 
z
" transform="scale(0.015625)"/>
       <path id="DejaVuSans-4c" d="M 628 4666 
L 1259 4666 
L 1259 531 
L 3531 531 
L 3531 0 
L 628 0 
L 628 4666 
z
" transform="scale(0.015625)"/>
       <path id="DejaVuSans-73" d="M 2834 3397 
L 2834 2853 
Q 2591 2978 2328 3040 
Q 2066 3103 1784 3103 
Q 1356 3103 1142 2972 
Q 928 2841 928 2578 
Q 928 2378 1081 2264 
Q 1234 2150 1697 2047 
L 1894 2003 
Q 2506 1872 2764 1633 
Q 3022 1394 3022 966 
Q 3022 478 2636 193 
Q 2250 -91 1575 -91 
Q 1294 -91 989 -36 
Q 684 19 347 128 
L 347 722 
Q 666 556 975 473 
Q 1284 391 1588 391 
Q 1994 391 2212 530 
Q 2431 669 2431 922 
Q 2431 1156 2273 1281 
Q 2116 1406 1581 1522 
L 1381 1569 
Q 847 1681 609 1914 
Q 372 2147 372 2553 
Q 372 3047 722 3315 
Q 1072 3584 1716 3584 
Q 2034 3584 2315 3537 
Q 2597 3491 2834 3397 
z
" transform="scale(0.015625)"/>
      </defs>
      <use xlink:href="#DejaVuSans-41"/>
      <use xlink:href="#DejaVuSans-63" transform="translate(66.658203 0)"/>
      <use xlink:href="#DejaVuSans-74" transform="translate(121.638672 0)"/>
      <use xlink:href="#DejaVuSans-75" transform="translate(160.847656 0)"/>
      <use xlink:href="#DejaVuSans-61" transform="translate(224.226562 0)"/>
      <use xlink:href="#DejaVuSans-6c" transform="translate(285.505859 0)"/>
      <use xlink:href="#DejaVuSans-20" transform="translate(313.289062 0)"/>
      <use xlink:href="#DejaVuSans-41" transform="translate(345.076172 0)"/>
      <use xlink:href="#DejaVuSans-41" transform="translate(416.234375 0)"/>
      <use xlink:href="#DejaVuSans-50" transform="translate(484.642578 0)"/>
      <use xlink:href="#DejaVuSans-4c" transform="translate(544.945312 0)"/>
      <use xlink:href="#DejaVuSans-20" transform="translate(600.658203 0)"/>
      <use xlink:href="#DejaVuSans-50" transform="translate(632.445312 0)"/>
      <use xlink:href="#DejaVuSans-72" transform="translate(690.998047 0)"/>
      <use xlink:href="#DejaVuSans-69" transform="translate(732.111328 0)"/>
      <use xlink:href="#DejaVuSans-63" transform="translate(759.894531 0)"/>
      <use xlink:href="#DejaVuSans-65" transform="translate(814.875 0)"/>
      <use xlink:href="#DejaVuSans-73" transform="translate(876.398438 0)"/>
     </g>
    </g>
    <g id="line2d_40">
     <path d="M 58.80125 469.765671 
L 69.80125 469.765671 
L 80.80125 469.765671 
" style="fill: none; stroke: #ff0000; stroke-opacity: 0.9; stroke-width: 2.5; stroke-linecap: square"/>
    </g>
    <g id="text_24">
     <!-- LSTM Predictions -->
     <g transform="translate(89.60125 473.615671) scale(0.11 -0.11)">
      <defs>
       <path id="DejaVuSans-54" d="M -19 4666 
L 3928 4666 
L 3928 4134 
L 2272 4134 
L 2272 0 
L 1638 0 
L 1638 4134 
L -19 4134 
L -19 4666 
z
" transform="scale(0.015625)"/>
       <path id="DejaVuSans-64" d="M 2906 2969 
L 2906 4863 
L 3481 4863 
L 3481 0 
L 2906 0 
L 2906 525 
Q 2725 213 2448 61 
Q 2172 -91 1784 -91 
Q 1150 -91 751 415 
Q 353 922 353 1747 
Q 353 2572 751 3078 
Q 1150 3584 1784 3584 
Q 2172 3584 2448 3432 
Q 2725 3281 2906 2969 
z
M 947 1747 
Q 947 1113 1208 752 
Q 1469 391 1925 391 
Q 2381 391 2643 752 
Q 2906 1113 2906 1747 
Q 2906 2381 2643 2742 
Q 2381 3103 1925 3103 
Q 1469 3103 1208 2742 
Q 947 2381 947 1747 
z
" transform="scale(0.015625)"/>
      </defs>
      <use xlink:href="#DejaVuSans-4c"/>
      <use xlink:href="#DejaVuSans-53" transform="translate(55.712891 0)"/>
      <use xlink:href="#DejaVuSans-54" transform="translate(119.189453 0)"/>
      <use xlink:href="#DejaVuSans-4d" transform="translate(180.273438 0)"/>
      <use xlink:href="#DejaVuSans-20" transform="translate(266.552734 0)"/>
      <use xlink:href="#DejaVuSans-50" transform="translate(298.339844 0)"/>
      <use xlink:href="#DejaVuSans-72" transform="translate(356.892578 0)"/>
      <use xlink:href="#DejaVuSans-65" transform="translate(395.755859 0)"/>
      <use xlink:href="#DejaVuSans-64" transform="translate(457.279297 0)"/>
      <use xlink:href="#DejaVuSans-69" transform="translate(520.755859 0)"/>
      <use xlink:href="#DejaVuSans-63" transform="translate(548.539062 0)"/>
      <use xlink:href="#DejaVuSans-74" transform="translate(603.519531 0)"/>
      <use xlink:href="#DejaVuSans-69" transform="translate(642.728516 0)"/>
      <use xlink:href="#DejaVuSans-6f" transform="translate(670.511719 0)"/>
      <use xlink:href="#DejaVuSans-6e" transform="translate(731.693359 0)"/>
      <use xlink:href="#DejaVuSans-73" transform="translate(795.072266 0)"/>
     </g>
    </g>
    <g id="patch_9">
     <path d="M 58.80125 489.761608 
L 80.80125 489.761608 
L 80.80125 482.061608 
L 58.80125 482.061608 
z
" style="fill: #ff0000; fill-opacity: 0.2; stroke: #ff0000; stroke-opacity: 0.2; stroke-linejoin: miter"/>
    </g>
    <g id="text_25">
     <!-- 1 Confidence Interval -->
     <g transform="translate(89.60125 489.761608) scale(0.11 -0.11)">
      <defs>
       <path id="DejaVuSans-b1" d="M 2944 4013 
L 2944 2803 
L 4684 2803 
L 4684 2272 
L 2944 2272 
L 2944 1063 
L 2419 1063 
L 2419 2272 
L 678 2272 
L 678 2803 
L 2419 2803 
L 2419 4013 
L 2944 4013 
z
M 678 531 
L 4684 531 
L 4684 0 
L 678 0 
L 678 531 
z
" transform="scale(0.015625)"/>
       <path id="DejaVuSans-3c3" d="M 1959 3044 
Q 1484 3044 1228 2700 
Q 959 2341 959 1747 
Q 959 1119 1226 758 
Q 1494 397 1959 397 
Q 2419 397 2687 759 
Q 2956 1122 2956 1747 
Q 2956 2319 2688 2700 
Q 2441 3044 1959 3044 
z
M 1959 3500 
L 3869 3500 
L 3869 2925 
L 3225 2925 
Q 3566 2438 3566 1747 
Q 3566 888 3138 400 
Q 2709 -91 1959 -91 
Q 1206 -91 781 400 
Q 353 888 353 1747 
Q 353 2613 781 3097 
Q 1134 3500 1959 3500 
z
" transform="scale(0.015625)"/>
       <path id="DejaVuSans-66" d="M 2375 4863 
L 2375 4384 
L 1825 4384 
Q 1516 4384 1395 4259 
Q 1275 4134 1275 3809 
L 1275 3500 
L 2222 3500 
L 2222 3053 
L 1275 3053 
L 1275 0 
L 697 0 
L 697 3053 
L 147 3053 
L 147 3500 
L 697 3500 
L 697 3744 
Q 697 4328 969 4595 
Q 1241 4863 1831 4863 
L 2375 4863 
z
" transform="scale(0.015625)"/>
       <path id="DejaVuSans-49" d="M 628 4666 
L 1259 4666 
L 1259 0 
L 628 0 
L 628 4666 
z
" transform="scale(0.015625)"/>
       <path id="DejaVuSans-76" d="M 191 3500 
L 800 3500 
L 1894 563 
L 2988 3500 
L 3597 3500 
L 2284 0 
L 1503 0 
L 191 3500 
z
" transform="scale(0.015625)"/>
      </defs>
      <use xlink:href="#DejaVuSans-b1"/>
      <use xlink:href="#DejaVuSans-31" transform="translate(83.789062 0)"/>
      <use xlink:href="#DejaVuSans-3c3" transform="translate(147.412109 0)"/>
      <use xlink:href="#DejaVuSans-20" transform="translate(210.791016 0)"/>
      <use xlink:href="#DejaVuSans-43" transform="translate(242.578125 0)"/>
      <use xlink:href="#DejaVuSans-6f" transform="translate(312.402344 0)"/>
      <use xlink:href="#DejaVuSans-6e" transform="translate(373.583984 0)"/>
      <use xlink:href="#DejaVuSans-66" transform="translate(436.962891 0)"/>
      <use xlink:href="#DejaVuSans-69" transform="translate(472.167969 0)"/>
      <use xlink:href="#DejaVuSans-64" transform="translate(499.951172 0)"/>
      <use xlink:href="#DejaVuSans-65" transform="translate(563.427734 0)"/>
      <use xlink:href="#DejaVuSans-6e" transform="translate(624.951172 0)"/>
      <use xlink:href="#DejaVuSans-63" transform="translate(688.330078 0)"/>
      <use xlink:href="#DejaVuSans-65" transform="translate(743.310547 0)"/>
      <use xlink:href="#DejaVuSans-20" transform="translate(804.833984 0)"/>
      <use xlink:href="#DejaVuSans-49" transform="translate(836.621094 0)"/>
      <use xlink:href="#DejaVuSans-6e" transform="translate(866.113281 0)"/>
      <use xlink:href="#DejaVuSans-74" transform="translate(929.492188 0)"/>
      <use xlink:href="#DejaVuSans-65" transform="translate(968.701172 0)"/>
      <use xlink:href="#DejaVuSans-72" transform="translate(1030.224609 0)"/>
      <use xlink:href="#DejaVuSans-76" transform="translate(1071.337891 0)"/>
      <use xlink:href="#DejaVuSans-61" transform="translate(1130.517578 0)"/>
      <use xlink:href="#DejaVuSans-6c" transform="translate(1191.796875 0)"/>
     </g>
    </g>
   </g>
  </g>
 </g>
 <defs>
  <clipPath id="p131022f813">
   <rect x="48.90125" y="25.3575" width="944.44" height="476.591765"/>
  </clipPath>
 </defs>
</svg>
